<svg width="22" height="18" viewBox="0 0 22 18" fill="none" xmlns="http://www.w3.org/2000/svg">
<path fill-rule="evenodd" clip-rule="evenodd" d="M10.9997 0C16.3917 0 20.8777 3.88 21.8187 9C20.8787 14.12 16.3917 18 10.9997 18C5.60766 18 1.12166 14.12 0.180664 9C1.12066 3.88 5.60766 0 10.9997 0ZM10.9997 4C8.23824 4 5.99966 6.23858 5.99966 9C5.99966 11.7614 8.23824 14 10.9997 14C13.7611 14 15.9997 11.7614 15.9997 9C15.9997 6.23858 13.7611 4 10.9997 4ZM10.9997 6C12.6565 6 13.9997 7.34315 13.9997 9C13.9997 10.6569 12.6565 12 10.9997 12C9.34281 12 7.99966 10.6569 7.99966 9C7.99966 7.34315 9.34281 6 10.9997 6Z" fill="#252421"/>
</svg>
