<svg width="64" height="64" viewBox="0 0 64 64" fill="none" xmlns="http://www.w3.org/2000/svg">
<path d="M18.4743 56H49.921C51.451 56 52.6957 54.7384 52.6957 53.1875V10.8125C52.6957 9.2616 51.451 8 49.921 8C48.3251 8 19.5293 8 18.4743 8C16.9442 8 15.6996 9.2616 15.6996 10.8125V14.1875H14.7747C13.2446 14.1875 12 15.4491 12 17C12 18.5509 13.2446 19.8125 14.7747 19.8125H15.6996V23.5625H14.7747C13.2446 23.5625 12 24.8241 12 26.375C12 27.9259 13.2446 29.1875 14.7747 29.1875H15.6996V34.8125H14.7747C13.2446 34.8125 12 36.0741 12 37.625C12 39.1759 13.2446 40.4375 14.7747 40.4375H15.6996V44.1875H14.7747C13.2446 44.1875 12 45.4491 12 47C12 48.5509 13.2446 49.8125 14.7747 49.8125H15.6996V53.1875C15.6996 54.7384 16.9442 56 18.4743 56ZM50.8459 10.8125V53.1875C50.8459 53.7046 50.4311 54.125 49.921 54.125H48.8371C48.9397 53.8317 48.9961 53.5164 48.9961 53.1875V10.8125C48.9961 10.4836 48.9397 10.1683 48.8371 9.875H49.921C50.4311 9.875 50.8459 10.2954 50.8459 10.8125ZM14.7747 17.9375C14.2646 17.9375 13.8498 17.5171 13.8498 17C13.8498 16.4829 14.2646 16.0625 14.7747 16.0625H15.6996V17.9375H14.7747ZM14.7747 27.3125C14.2646 27.3125 13.8498 26.8921 13.8498 26.375C13.8498 25.8579 14.2646 25.4375 14.7747 25.4375H15.6996V27.3125H14.7747ZM14.7747 38.5625C14.2646 38.5625 13.8498 38.1421 13.8498 37.625C13.8498 37.1079 14.2646 36.6875 14.7747 36.6875H15.6996V38.5625H14.7747ZM20.3241 36.6875C19.8132 36.6875 19.3992 37.1072 19.3992 37.625C19.3992 38.1421 18.9844 38.5625 18.4743 38.5625H17.5494V29.1875H18.4743C20.0044 29.1875 21.249 27.9259 21.249 26.375C21.249 25.8572 20.835 25.4375 20.3241 25.4375C19.8132 25.4375 19.3992 25.8572 19.3992 26.375C19.3992 26.8921 18.9844 27.3125 18.4743 27.3125H17.5494V19.8125H18.4743C20.0044 19.8125 21.249 18.5509 21.249 17C21.249 16.4822 20.835 16.0625 20.3241 16.0625C19.8132 16.0625 19.3992 16.4822 19.3992 17C19.3992 17.5171 18.9844 17.9375 18.4743 17.9375H17.5494V10.8125C17.5494 10.2954 17.9642 9.875 18.4743 9.875H46.2213C46.7315 9.875 47.1462 10.2954 47.1462 10.8125V53.1875C47.1462 53.7046 46.7315 54.125 46.2213 54.125H18.4743C17.9642 54.125 17.5494 53.7046 17.5494 53.1875V49.8125H18.4743C20.0044 49.8125 21.249 48.5509 21.249 47C21.249 46.4822 20.835 46.0625 20.3241 46.0625C19.8132 46.0625 19.3992 46.4822 19.3992 47C19.3992 47.5171 18.9844 47.9375 18.4743 47.9375H17.5494V40.4375H18.4743C20.0044 40.4375 21.249 39.1759 21.249 37.625C21.249 37.1072 20.835 36.6875 20.3241 36.6875ZM14.7747 47.9375C14.2646 47.9375 13.8498 47.5171 13.8498 47C13.8498 46.4829 14.2646 46.0625 14.7747 46.0625H15.6996V47.9375H14.7747Z" fill="#252421"/>
<path d="M29.414 37.2791C31.399 39.3886 33.722 41.0341 36.3182 42.1699C37.8481 42.8393 39.6003 42.4745 40.7794 41.222L42.1308 39.7851C43.0927 38.7644 43.0943 37.1103 42.1315 36.0886L40.5292 34.3852H40.5289C39.2373 33.0129 37.0348 33.5622 36.456 35.4069L36.3746 35.6669C33.7486 34.8467 31.7033 32.6733 30.931 29.8835L31.1758 29.7967C32.9122 29.1817 33.4289 26.8415 32.1374 25.4692L30.5348 23.7671C29.5722 22.743 28.0155 22.7458 27.0558 23.7665L25.7027 25.2034C24.5284 26.4511 24.1783 28.3117 24.8109 29.943C25.8799 32.7015 27.4286 35.1697 29.414 37.2791ZM26.8623 26.4361L28.2157 24.9985C28.536 24.6585 29.0536 24.6571 29.3749 24.9992L30.9778 26.7016C31.4086 27.1593 31.235 27.9391 30.6572 28.144L29.6952 28.4846C29.3028 28.6235 29.0693 29.051 29.1504 29.4818C29.9207 33.5704 32.9045 36.7407 36.7526 37.5589C37.1581 37.645 37.5604 37.3969 37.6911 36.98L38.0118 35.9583C38.2046 35.3439 38.9382 35.1595 39.3693 35.6172L40.9719 37.321C41.2922 37.661 41.2935 38.211 40.9716 38.5527L39.6195 39.9903C38.9148 40.7387 37.8641 40.962 36.9429 40.5587C32.1643 38.4679 28.2951 34.3569 26.3274 29.2797C25.9478 28.3009 26.1579 27.1845 26.8623 26.4361Z" fill="#252421"/>
</svg>
