<svg width="64" height="64" viewBox="0 0 64 64" fill="none" xmlns="http://www.w3.org/2000/svg">
<path fill-rule="evenodd" clip-rule="evenodd" d="M45.0015 34.7882C45.4342 34.93 45.8857 35.0014 46.3398 35C46.9606 34.9983 47.5752 34.8733 48.15 34.6319C49.1671 34.2827 50.0092 33.5347 50.4934 32.5505C50.9776 31.5662 51.0648 30.4252 50.736 29.3752C50.5987 29.0253 50.4065 28.701 50.1671 28.4152L55.3273 26.2701C55.5917 26.1599 55.8028 25.9462 55.9143 25.6761C56.0258 25.4059 56.0286 25.1013 55.9221 24.829L50.6746 11.4665C50.4096 10.7916 50.0179 10.177 49.522 9.65786C49.0262 9.13868 48.4357 8.72507 47.7844 8.44065C47.1332 8.15623 46.4338 8.00657 45.7263 8.00021C45.0188 7.99386 44.3171 8.13093 43.6611 8.4036L30.6727 13.8023C30.4083 13.9125 30.1972 14.1262 30.0857 14.3963C29.9742 14.6665 29.9714 14.9711 30.0779 15.2434L32.484 21.3803C32.5945 21.6629 32.7784 21.9088 33.0156 22.0912C33.2527 22.2736 33.534 22.3854 33.8287 22.4146C34.1165 22.4458 34.407 22.3951 34.6687 22.268C34.9303 22.141 35.153 21.9424 35.3125 21.694C35.4526 21.4687 35.6569 21.2933 35.8975 21.1919C36.0946 21.1183 36.3051 21.0907 36.5138 21.111C36.7225 21.1313 36.9242 21.1991 37.1044 21.3094C37.6004 21.6124 37.9861 22.0745 38.2022 22.6248C38.4182 23.1751 38.4527 23.7832 38.3004 24.3557C38.2453 24.5642 38.1457 24.7574 38.0089 24.9214C37.8721 25.0853 37.7015 25.2159 37.5095 25.3035C37.27 25.403 37.0061 25.4224 36.7553 25.3589C36.4731 25.295 36.1793 25.3117 35.9057 25.407C35.6321 25.5024 35.3889 25.6728 35.2026 25.8999C35.0099 26.1318 34.883 26.4137 34.8357 26.7148C34.7884 27.0159 34.8225 27.3245 34.9342 27.607L36.9395 32.7164C37.0465 32.9886 37.2541 33.206 37.5167 33.3209C37.7793 33.4358 38.0755 33.4389 38.3403 33.3294L42.5006 31.5989C42.5212 31.9753 42.6017 32.3457 42.7387 32.6953C42.9406 33.1955 43.2485 33.643 43.64 34.0051C44.0314 34.3672 44.4966 34.6348 45.0015 34.7882ZM44.16 29.486C43.8667 29.2291 43.4944 29.0877 43.1093 29.087C43.1093 29.087 43.1093 29.087 43.1094 29.087H43.1072C43.1079 29.087 43.1086 29.087 43.1093 29.087C42.9008 29.0915 42.6953 29.1374 42.5038 29.2222L38.5375 30.8717L37.2595 27.6181C37.6251 27.5965 37.9847 27.5134 38.3241 27.372C38.8106 27.1648 39.2458 26.8481 39.5978 26.4453C39.9498 26.0425 40.2097 25.5637 40.3585 25.0441C40.665 23.9773 40.6114 22.8351 40.2064 21.8037C39.8013 20.7722 39.0688 19.9123 38.128 19.3639C37.6706 19.0968 37.1609 18.9384 36.6363 18.9C36.1117 18.8617 35.5854 18.9444 35.0959 19.1421C34.7561 19.2835 34.4409 19.4808 34.1627 19.7264L32.4818 15.4462L44.4713 10.4577C45.2655 10.1292 46.1539 10.138 46.9416 10.4823C47.7294 10.8267 48.3523 11.4784 48.6737 12.2946L53.5225 24.625L48.5541 26.6869C48.279 26.8004 48.0395 26.9894 47.8618 27.2334C47.6842 27.4774 47.5751 27.767 47.5466 28.0704C47.5166 28.3664 47.5661 28.6652 47.6895 28.9343C47.813 29.2034 48.0058 29.4326 48.247 29.5969C48.4664 29.7406 48.637 29.951 48.7351 30.1988C48.8386 30.7022 48.7523 31.2272 48.4936 31.6675C48.2349 32.1078 47.8232 32.4304 47.3419 32.57C46.8097 32.8053 46.2141 32.8414 45.6588 32.672C45.4565 32.6151 45.269 32.5127 45.1098 32.3722C44.9507 32.2317 44.8239 32.0566 44.7386 31.8595C44.6438 31.6126 44.625 31.3417 44.6847 31.0835C44.7476 30.7933 44.732 30.4909 44.6395 30.2093C44.5469 29.9276 44.3811 29.6775 44.16 29.486ZM13.4167 56H41.5833C43.0194 55.9983 44.3961 55.427 45.4116 54.4116C46.427 53.3961 46.9983 52.0194 47 50.5833V36.5C47 36.2127 46.8859 35.9371 46.6827 35.734C46.4795 35.5308 46.204 35.4167 45.9167 35.4167H39.4492C39.1512 35.416 38.8588 35.4974 38.6039 35.6517C38.349 35.8061 38.1415 36.0276 38.004 36.292C37.8675 36.5488 37.8042 36.8382 37.8208 37.1285C37.8374 37.4189 37.9334 37.6991 38.0983 37.9387C38.2499 38.1513 38.332 38.4056 38.3333 38.6667C38.3333 39.5474 37.341 40.2917 36.1667 40.2917C34.9923 40.2917 34 39.5474 34 38.6667C34.0015 38.4054 34.084 38.151 34.2362 37.9387C34.4008 37.6992 34.4967 37.4193 34.5135 37.1292C34.5303 36.8391 34.4674 36.5499 34.3315 36.2931C34.1936 36.0287 33.9859 35.8072 33.7309 35.6527C33.4759 35.4982 33.1834 35.4165 32.8853 35.4167H28.5833V31.9879C28.9323 32.1062 29.2982 32.1666 29.6667 32.1667C30.7419 32.0891 31.7432 31.5905 32.453 30.7792C33.1629 29.9679 33.5242 28.9094 33.4583 27.8333C33.5242 26.7573 33.1629 25.6987 32.453 24.8874C31.7432 24.0761 30.7419 23.5776 29.6667 23.5C29.2983 23.5001 28.9324 23.5601 28.5833 23.6777V18.0833C28.5833 17.796 28.4692 17.5205 28.266 17.3173C28.0629 17.1141 27.7873 17 27.5 17H13.4167C11.9806 17.0017 10.6039 17.573 9.5884 18.5884C8.57296 19.6039 8.00172 20.9806 8 22.4167V50.5833C8.00172 52.0194 8.57296 53.3961 9.5884 54.4116C10.6039 55.427 11.9806 55.9983 13.4167 56ZM41.5833 53.8333H28.5833V48.4481C28.5835 48.1499 28.5018 47.8574 28.3473 47.6024C28.1928 47.3475 27.9713 47.1397 27.7069 47.0018C27.4505 46.866 27.1618 46.803 26.8721 46.8196C26.5824 46.8362 26.3027 46.9318 26.0635 47.0961C25.8505 47.2488 25.5954 47.3317 25.3333 47.3333C24.4526 47.3333 23.7083 46.341 23.7083 45.1667C23.7083 43.9923 24.4526 43 25.3333 43C25.5949 43.0015 25.8496 43.084 26.0624 43.2362C26.302 43.4007 26.5821 43.4963 26.8722 43.5128C27.1623 43.5292 27.4514 43.4657 27.708 43.3293C27.9724 43.1919 28.1939 42.9843 28.3483 42.7295C28.5026 42.4746 28.584 42.1822 28.5833 41.8842V37.5833H32.0121C31.8938 37.9323 31.8334 38.2982 31.8333 38.6667C31.9109 39.7419 32.4095 40.7432 33.2208 41.453C34.0321 42.1629 35.0906 42.5242 36.1667 42.4583C37.2427 42.5242 38.3013 42.1629 39.1126 41.453C39.9239 40.7432 40.4224 39.7419 40.5 38.6667C40.4999 38.2982 40.4396 37.9323 40.3213 37.5833H44.8333V50.5833C44.8333 51.4453 44.4909 52.2719 43.8814 52.8814C43.2719 53.4909 42.4453 53.8333 41.5833 53.8333ZM10.1667 50.5833V37.5833H15.5519C15.8501 37.5835 16.1426 37.5018 16.3976 37.3473C16.6525 37.1928 16.8603 36.9713 16.9982 36.7069C17.134 36.4505 17.197 36.1618 17.1804 35.8721C17.1638 35.5824 17.0682 35.3027 16.9039 35.0635C16.7512 34.8505 16.6683 34.5954 16.6667 34.3333C16.6667 33.4526 17.659 32.7083 18.8333 32.7083C20.0077 32.7083 21 33.4526 21 34.3333C20.9985 34.5949 20.916 34.8496 20.7638 35.0624C20.5993 35.302 20.5037 35.5821 20.4873 35.8722C20.4708 36.1623 20.5343 36.4514 20.6707 36.708C20.8081 36.9724 21.0157 37.1939 21.2705 37.3483C21.5254 37.5026 21.8178 37.584 22.1158 37.5833H26.4167V41.0121C26.0677 40.8938 25.7018 40.8334 25.3333 40.8333C24.2581 40.9109 23.2568 41.4095 22.547 42.2208C21.8371 43.0321 21.4758 44.0906 21.5417 45.1667C21.4758 46.2427 21.8371 47.3013 22.547 48.1126C23.2568 48.9239 24.2581 49.4224 25.3333 49.5C25.7018 49.4999 26.0677 49.4396 26.4167 49.3213V53.8333H13.4167C12.5547 53.8333 11.7281 53.4909 11.1186 52.8814C10.5091 52.2719 10.1667 51.4453 10.1667 50.5833ZM26.4167 35.4167H22.9879C23.1062 35.0677 23.1666 34.7018 23.1667 34.3333C23.0891 33.2581 22.5905 32.2568 21.7792 31.547C20.9679 30.8371 19.9094 30.4758 18.8333 30.5417C17.7573 30.4758 16.6987 30.8371 15.8874 31.547C15.0761 32.2568 14.5776 33.2581 14.5 34.3333C14.5001 34.7018 14.5604 35.0677 14.6788 35.4167H10.1667V22.4167C10.1667 21.5547 10.5091 20.7281 11.1186 20.1186C11.7281 19.5091 12.5547 19.1667 13.4167 19.1667H26.4167V24.5508C26.416 24.8488 26.4974 25.1412 26.6517 25.3961C26.8061 25.651 27.0276 25.8585 27.292 25.996C27.549 26.1321 27.8383 26.1951 28.1286 26.1783C28.4189 26.1615 28.6991 26.0655 28.9387 25.9007C29.1516 25.7498 29.4057 25.6681 29.6667 25.6667C30.5474 25.6667 31.2917 26.659 31.2917 27.8333C31.2917 29.0077 30.5474 30 29.6667 30C29.4054 29.9985 29.151 29.916 28.9387 29.7638C28.6992 29.5992 28.4193 29.5033 28.1292 29.4865C27.8391 29.4697 27.5499 29.5326 27.2931 29.6685C27.0288 29.8065 26.8074 30.0142 26.6529 30.2692C26.4984 30.5242 26.4167 30.8166 26.4167 31.1147V35.4167Z" fill="#F1AF37"/>
</svg>
