<svg width="65" height="64" viewBox="0 0 65 64" fill="none" xmlns="http://www.w3.org/2000/svg">
<path d="M56.1802 15.3167C56.4475 15.0494 56.8238 14.0054 55.7537 13.5102L52.9991 12.5916L52.0795 9.83599C51.9606 9.47709 51.2668 8.66873 50.274 9.40945L46.8791 12.8043C42.7053 9.66909 37.7526 8 32.4999 8C19.2661 8 8.5 18.7661 8.5 31.9999C8.5 45.2337 19.2661 55.9998 32.4999 55.9998C45.7337 55.9998 56.4998 45.2337 56.4998 31.9999C56.4998 27.309 55.1417 22.8025 52.5944 18.9025L56.1802 15.3167ZM49.5028 18.9091H47.9493L52.41 14.696L53.3886 15.0222L49.5028 18.9091ZM33.9825 29.0992C32.4999 28.2821 29.381 28.8112 29.2272 31.9999C29.1399 33.8021 30.6956 35.289 32.4999 35.2726C35.9035 35.2421 36.0879 31.6465 35.4879 30.6777L39.5341 26.8563C40.5933 28.3007 41.2272 30.0756 41.2272 31.9999C41.2272 36.8119 37.3119 40.7272 32.4999 40.7272C27.6879 40.7272 23.7727 36.8119 23.7727 31.9999C23.7727 27.1879 27.6879 23.2727 32.4999 23.2727C34.6032 23.2727 36.5341 24.021 38.0428 25.2647L33.9825 29.0992ZM39.6312 23.7636C37.7166 22.1032 35.2272 21.0909 32.4999 21.0909C26.4847 21.0909 21.5909 25.9847 21.5909 31.9999C21.5909 38.0152 26.4847 42.909 32.4999 42.909C38.5152 42.909 43.409 38.0152 43.409 31.9999C43.409 29.4963 42.5526 27.1934 41.129 25.3509L44.3177 22.34C46.4744 24.9734 47.7726 28.3378 47.7726 31.9999C47.7726 40.4217 40.9217 47.2726 32.4999 47.2726C24.0781 47.2726 17.2272 40.4217 17.2272 31.9999C17.2272 23.5781 24.0781 16.7272 32.4999 16.7272C36.4752 16.7272 40.0883 18.2665 42.8079 20.7636L39.6312 23.7636ZM50.5675 12.2011L50.8806 13.1393L46.6817 17.1058V16.088L50.5675 12.2011ZM54.318 31.9999C54.318 44.0304 44.5304 53.818 32.4999 53.818C20.4694 53.818 10.6818 44.0304 10.6818 31.9999C10.6818 19.9694 20.4694 10.1818 32.4999 10.1818C37.1701 10.1818 41.5773 11.636 45.3192 14.3654C45.3192 14.3654 44.4344 15.008 44.4999 15.6363L44.3962 19.2636C41.2752 16.3465 37.0992 14.5454 32.4999 14.5454C22.876 14.5454 15.0454 22.376 15.0454 31.9999C15.0454 41.6239 22.876 49.4544 32.4999 49.4544C42.1239 49.4544 49.9544 41.6239 49.9544 31.9999C49.9544 27.873 48.5068 24.0821 46.1035 21.0909H49.9544C50.585 21.0985 51.0159 20.4811 51.0159 20.4811C53.1715 23.9349 54.318 27.8894 54.318 31.9999Z" fill="#F1AF37"/>
</svg>
