<svg width="64" height="64" viewBox="0 0 64 64" fill="none" xmlns="http://www.w3.org/2000/svg">
<path d="M1.9697 48.7455H14.1879C14.7697 48.7455 15.1576 48.3576 15.1576 47.7758V42.5394C15.1576 41.9576 14.7697 41.5697 14.1879 41.5697H13.5091C13.703 39.4364 13.703 38.2727 13.703 36.9152C13.9939 37.0121 49.9697 37.0121 50.2606 36.9152C50.2606 38.1758 50.2606 39.3394 50.4545 41.5697H49.7758C49.1939 41.5697 48.8061 41.9576 48.8061 42.5394V47.7758C48.8061 48.3576 49.1939 48.7455 49.7758 48.7455H62.0909C62.6727 48.7455 63.0606 48.3576 63.0606 47.7758V42.5394C63.0606 41.9576 62.6727 41.5697 62.0909 41.5697H61.4121C61.897 36.8182 61.5091 32.5515 60.6364 29.2545C60.5394 28.8667 60.1515 28.5758 59.6667 28.5758H59.3758V23.2424C59.3758 22.6606 58.9879 22.2727 58.4061 22.2727H56.8545V18.9758C56.8545 18.3939 56.4667 18.0061 55.8848 18.0061C55.303 18.0061 54.9152 18.3939 54.9152 18.9758V22.2727H53.3636C52.7818 22.2727 52.3939 22.6606 52.3939 23.2424V25.0848C49 18.9758 41.1455 15 32.0303 15C22.9152 15 15.0606 19.0727 11.5697 25.0848V23.2424C11.5697 22.6606 11.1818 22.2727 10.6 22.2727H9.04848V18.9758C9.04848 18.3939 8.66061 18.0061 8.07879 18.0061C7.49697 18.0061 7.10909 18.3939 7.10909 18.9758V22.2727H5.55758C4.97576 22.2727 4.58788 22.6606 4.58788 23.2424V28.5758C4.49091 28.5758 3.61818 28.3818 3.32727 29.2545C2.45455 32.5515 2.06667 36.8182 2.55152 41.5697H1.9697C1.38788 41.5697 1 41.9576 1 42.5394V47.7758C1 48.3576 1.38788 48.7455 1.9697 48.7455ZM13.2182 46.8061H2.93939V43.5091H13.2182V46.8061ZM13.703 35.1697C13.703 34.6848 13.6061 34.297 13.6061 33.8121C14.6727 32.5515 16.0303 31.3879 17.4848 30.4182V34.9758C14.0909 35.0727 14.0909 34.9758 13.703 35.1697ZM31.0606 35.0727H26.2121V27.0242C27.7636 26.7333 29.4121 26.5394 31.0606 26.4424V35.0727ZM33 26.4424C34.6485 26.5394 36.297 26.6364 37.8485 27.0242V35.0727H33V26.4424ZM39.7879 27.5091C41.5333 27.9939 43.1818 28.5758 44.6364 29.3515V35.0727H39.7879V27.5091ZM39.7879 25.4727V18.103C41.5333 18.5879 43.1818 19.3636 44.6364 20.2364V27.2182C43.0849 26.4424 41.5333 25.8606 39.7879 25.4727ZM37.8485 24.9879C36.297 24.697 34.6485 24.503 33 24.503V16.9394C34.6485 17.0364 36.297 17.2303 37.8485 17.5212V24.9879ZM31.0606 24.503C29.4121 24.6 27.7636 24.697 26.2121 24.9879V17.5212C27.7636 17.1333 29.4121 16.9394 31.0606 16.9394V24.503ZM24.2727 25.4727C22.5273 25.9576 20.9758 26.5394 19.4242 27.2182V20.2364C20.8788 19.3636 22.5273 18.6848 24.2727 18.103V25.4727ZM24.2727 27.5091V35.1697H19.4242V29.3515C20.8788 28.5758 22.5273 27.897 24.2727 27.5091ZM46.5758 35.0727V30.5152C48.0303 31.4848 49.3879 32.6485 50.4545 33.9091C50.4545 34.3939 50.3576 34.7818 50.3576 35.2667C49.9697 34.9758 49.8727 35.0727 46.5758 35.0727ZM61.1212 46.8061H50.8424V43.5091C51.0364 43.5091 61.4121 43.5091 61.1212 43.5091V46.8061ZM59.5697 41.5697H52.4909C52.103 38.0788 52.2 33.9091 52.9758 30.5152H58.9879C59.8606 34.0061 59.9576 38.0788 59.5697 41.5697ZM54.4303 24.2121H57.4364V28.5758H54.4303V24.2121ZM52.0061 28.5758C51.7152 28.6727 51.4242 28.8667 51.3273 29.2545C51.1333 29.9333 51.0364 30.6121 50.8424 31.3879C49.5818 30.2242 48.1273 29.1576 46.5758 28.1879V21.4C49.1939 23.3394 51.1333 25.8606 52.0061 28.5758ZM17.4848 21.4V28.1879C15.9333 29.0606 14.4788 30.1273 13.2182 31.3879C13.1212 30.6121 12.9273 29.9333 12.7333 29.2545C12.6364 28.9636 12.3455 28.6727 12.0545 28.5758C12.9273 25.8606 14.8667 23.3394 17.4848 21.4ZM6.52727 24.2121H9.53333V28.5758H6.52727V24.2121ZM5.07273 30.5152C5.1697 30.5152 11.3758 30.5152 11.0848 30.5152C11.9576 34.0061 12.0545 38.0788 11.6667 41.5697H4.58788C4.10303 38.0788 4.29697 34.0061 5.07273 30.5152Z" fill="#252421"/>
</svg>
