<svg width="64" height="64" viewBox="0 0 64 64" fill="none" xmlns="http://www.w3.org/2000/svg">
<path fill-rule="evenodd" clip-rule="evenodd" d="M27.6727 20.9449L25.8074 21.2831C24.9566 21.4356 24.5683 21.5052 24.0128 21.9204C22.9091 22.7469 21.7455 23.1599 20.5535 23.1599C19.2791 23.1599 17.9722 22.6882 16.6702 21.7452L15.2365 20.7113H9.89843C9.40223 20.7113 9 20.3091 9 19.8129V11.116C9 10.6198 9.40223 10.2175 9.89843 10.2175H15.4586L22.3259 9.17094L22.345 9.16824C26.5077 8.62469 28.8709 9.43714 32.0173 11.2343L40.8717 15.8684C42.1002 16.4717 42.6599 17.8973 42.1459 19.1212C41.6599 20.2787 40.126 21.284 37.4024 20.3072L30.4431 17.741C30.4441 19.2909 29.3141 20.6306 27.6727 20.9449ZM10.7969 18.9145H14.6282V12.0144H10.7969V18.9145ZM16.4251 19.3532L17.7227 20.2888C19.5947 21.6446 21.2997 21.7074 22.9364 20.4817C23.833 19.8115 24.5282 19.6868 25.4903 19.5143L27.3434 19.1784C28.1732 19.0195 28.732 18.3233 28.6347 17.5608C28.6031 17.3141 28.507 17.0791 28.36 16.8796C28.3242 16.8428 28.2919 16.8031 28.2632 16.7613C28.2019 16.6938 28.1341 16.6318 28.0606 16.5764C27.7616 16.3507 27.401 16.2564 27.0457 16.3104L23.1476 16.9088C22.6571 16.9841 22.1986 16.6475 22.1233 16.1571C22.0481 15.6666 22.3846 15.2081 22.8751 15.1328L26.7741 14.5343C27.6133 14.4064 28.454 14.6225 29.1427 15.142C29.2831 15.2479 29.4141 15.3647 29.5344 15.4907L38.0167 18.6184C39.4499 19.1325 40.293 18.8925 40.4893 18.4254C40.6173 18.1206 40.4973 17.6832 40.0751 17.4789C40.0666 17.4748 40.0582 17.4706 40.0498 17.4662L31.1695 12.8185C31.1596 12.8134 31.1498 12.8081 31.1402 12.8025C27.9016 10.9511 25.9016 10.5173 22.5871 10.9487L16.4251 11.8878V19.3532ZM48.7616 43.2886H54.1015C54.5977 43.2886 54.9999 43.6909 54.9999 44.1871V52.884C54.9999 53.3802 54.5977 53.7824 54.1015 53.7824H48.5386L41.6714 54.829L41.6523 54.8317C40.7955 54.9437 40.0147 54.9979 39.2876 54.9979C36.4853 54.998 34.4803 54.1911 31.98 52.7632L23.1283 48.1316C21.8985 47.5284 21.3383 46.1023 21.8528 44.8774C22.3391 43.7193 23.8731 42.7142 26.5955 43.6931L33.5542 46.259C33.5532 44.708 34.6842 43.3672 36.3271 43.0526L36.3368 43.0507L38.1755 42.7196L38.176 42.7195C39.0337 42.5654 39.4253 42.4951 39.9845 42.077C42.2666 40.3705 44.8062 40.4308 47.3284 42.2515L48.7616 43.2886ZM32.8572 51.1949C36.0987 53.048 38.0992 53.4824 41.4104 53.0513L47.5723 52.1122V44.6459L46.2759 43.7078C44.4029 42.3557 42.6966 42.2927 41.0605 43.5161C40.1607 44.1887 39.4612 44.3143 38.4931 44.4881L38.493 44.4881L36.6609 44.8182C35.8232 44.9807 35.2653 45.6768 35.3627 46.4392C35.3944 46.6874 35.492 46.924 35.6411 47.1243C35.6739 47.1583 35.7036 47.1946 35.7303 47.2329C35.7928 47.3022 35.8622 47.3658 35.9375 47.4226C36.2367 47.6479 36.5974 47.7418 36.9528 47.6871L40.8496 47.0886C41.3403 47.0135 41.7987 47.3498 41.874 47.8402C41.9492 48.3306 41.6128 48.7893 41.1223 48.8646L37.2258 49.463C36.3877 49.5921 35.5463 49.3772 34.8566 48.858C34.7163 48.7524 34.5854 48.6358 34.4648 48.51L25.9806 45.3814C24.5482 44.8665 23.7056 45.1061 23.5094 45.5733C23.3813 45.8785 23.5014 46.3164 23.9244 46.5207L23.9394 46.5282L23.95 46.5337L32.8278 51.1789C32.8377 51.1841 32.8475 51.1894 32.8572 51.1949ZM49.3691 51.9857H53.203V45.0855H49.3691V51.9857ZM31.0641 41.77C36.4519 41.77 40.8352 37.3867 40.8352 31.9989C40.8352 26.6111 36.4519 22.2278 31.0641 22.2278C25.6763 22.2278 21.293 26.6111 21.293 31.9989C21.293 37.3867 25.6763 41.77 31.0641 41.77ZM31.0641 24.0246C35.4611 24.0246 39.0384 27.6018 39.0384 31.9989C39.0384 36.3959 35.4612 39.9731 31.0641 39.9731C26.667 39.9731 23.0898 36.3959 23.0898 31.9989C23.0898 27.6019 26.667 24.0246 31.0641 24.0246ZM28.4929 37.5837C28.0034 37.5026 27.6723 37.04 27.7534 36.5505C28.0079 35.015 29.2085 33.7583 29.7214 33.2218L29.7941 33.1452L28.7176 32.0687C27.4236 30.7747 27.4236 28.6693 28.7176 27.3753C29.3442 26.7487 30.1775 26.4036 31.0642 26.4036C31.9508 26.4036 32.7842 26.7487 33.4109 27.3753C34.7048 28.6693 34.7048 30.7747 33.4109 32.0687L32.3344 33.1452L32.3974 33.2112C32.9126 33.7481 34.1189 35.0055 34.375 36.5505C34.4561 37.04 34.125 37.5026 33.6356 37.5837C33.5859 37.5919 33.5364 37.5959 33.4876 37.5959C33.056 37.5959 32.6752 37.2841 32.6024 36.8443C32.4373 35.8481 31.4663 34.8361 31.1008 34.4552L31.0644 34.4171L31.0204 34.4631C30.6565 34.8439 29.6898 35.8555 29.5261 36.8443C29.4449 37.3337 28.9823 37.6649 28.4929 37.5837ZM31.0642 28.2004C30.6575 28.2004 30.2753 28.3586 29.9881 28.6459C29.3947 29.2392 29.3947 30.2047 29.9881 30.7982L31.0642 31.8742L32.1402 30.7982C32.7336 30.2048 32.7336 29.2393 32.1402 28.646C31.853 28.3586 31.4708 28.2004 31.0642 28.2004Z" fill="#252421"/>
</svg>
