<svg width="64" height="64" viewBox="0 0 64 64" fill="none" xmlns="http://www.w3.org/2000/svg">
<path fill-rule="evenodd" clip-rule="evenodd" d="M28.0272 19.8592L32 26.2158L41.5684 10.9062H22.4316L26.4777 17.3801C23.6103 18.2848 21.015 19.8847 18.8879 22.0738C16.2863 24.7513 14.5862 28.1032 13.9715 31.7673L16.7452 32.2327C17.7467 26.2631 22.2245 21.4 28.0272 19.8592ZM36.4941 13.7188L32 20.9092L27.5059 13.7188H36.4941ZM31.9063 50.2812C28.3003 50.2812 24.8292 49.0292 22.0625 46.7444V36.2188H8V50.2812H22.0625V50.2189C24.9836 52.0872 28.391 53.0938 31.9063 53.0938C34.8208 53.0938 37.7211 52.3905 40.2935 51.0602L39.0015 48.5621C36.7956 49.7028 34.4084 50.2812 31.9063 50.2812ZM19.25 47.4688H10.8125V39.0312H19.25V47.4688ZM50.375 34.8126C50.375 35.3251 50.3535 35.8384 50.3111 36.3489C53.5481 36.9774 56 39.8322 56 43.2501C56 47.1271 52.8458 50.2813 48.9688 50.2813C45.0917 50.2813 41.9375 47.1271 41.9375 43.2501C41.9375 39.8826 44.3176 37.0617 47.4837 36.3781C47.5358 35.859 47.5625 35.3354 47.5625 34.8126C47.5625 29.4028 44.6756 24.3136 40.0283 21.5307L41.4732 19.1178C44.1366 20.7126 46.3667 22.9752 47.9226 25.6607C49.5269 28.4302 50.375 31.5948 50.375 34.8126ZM44.75 43.2501C44.75 45.5763 46.6425 47.4688 48.9688 47.4688C51.295 47.4688 53.1875 45.5763 53.1875 43.2501C53.1875 40.9239 51.295 39.0313 48.9688 39.0313C46.6425 39.0313 44.75 40.9239 44.75 43.2501Z" fill="#F1AF37"/>
</svg>
