<svg width="65" height="64" viewBox="0 0 65 64" fill="none" xmlns="http://www.w3.org/2000/svg">
<path fill-rule="evenodd" clip-rule="evenodd" d="M36.0786 8.15538L40.1055 10.5582C40.6367 10.874 40.8135 11.5907 40.4987 12.1553L39.4774 13.9825L41.012 14.86L41.9846 13.1184C42.1431 12.8334 42.4109 12.6222 42.7188 12.5394C43.0134 12.4599 43.3183 12.5009 43.5769 12.6545L47.6053 15.0577C48.1359 15.3764 48.3116 16.0923 47.9991 16.6549L47.0671 18.3224L48.6016 19.1999L49.4846 17.6188C49.6436 17.3336 49.9116 17.1225 50.2193 17.0396C50.5142 16.9605 50.8187 17.0014 51.0769 17.155L55.1046 19.5581C55.6369 19.8755 55.8132 20.5931 55.4972 21.1574L54.6566 22.6622L55.7865 23.3083C56.1169 23.4971 56.353 23.8035 56.4514 24.171C56.5496 24.5375 56.4986 24.9198 56.3078 25.2472L51.4706 33.5453C51.2077 33.9969 50.7283 34.2498 50.2369 34.25C49.9975 34.25 49.755 34.19 49.5334 34.0635L25.7137 20.4422C25.3826 20.253 25.146 19.9456 25.0477 19.577C24.9501 19.2103 25.0018 18.8285 25.1934 18.5021L30.0294 10.2053C30.4213 9.53249 31.291 9.30035 31.9684 9.68872L33.4224 10.5201L34.4853 8.61845C34.6453 8.33259 34.9136 8.12143 35.2213 8.03893C35.5158 7.95982 35.82 8.00146 36.0786 8.15538ZM53.3544 21.9176L49.9037 19.9444L50.6337 18.6371L54.0486 20.6749L53.3544 21.9176ZM34.7246 11.2648L38.1753 13.2379L39.0489 11.6747L35.6344 9.63721L34.7246 11.2648ZM45.7649 17.5778L42.3141 15.6046L43.1337 14.1369L46.5494 16.1744L45.7649 17.5778ZM26.5329 19.1827L50.213 32.7243L54.9675 24.5677L31.2867 11.0267L26.5329 19.1827ZM26.1221 26.7502H21.6282C21.0063 26.7502 20.5002 27.287 20.5002 27.9469V29.7502H19.0003V27.9469C19.0003 27.287 18.4943 26.7502 17.8724 26.7502H13.3784C12.7563 26.7502 12.2502 27.287 12.2502 27.9469V29.7502H9.93184C9.14226 29.7502 8.5 30.3947 8.5 31.1867V41.064C8.5 41.8558 9.14237 42.5003 9.93173 42.5003H37.8183C38.6077 42.5003 39.2501 41.856 39.2499 41.064V31.1867C39.25 30.3947 38.6078 29.7502 37.8183 29.7502H36.2503V27.9469C36.2504 27.287 35.7443 26.7502 35.1224 26.7502H30.6282C30.0063 26.7502 29.5002 27.287 29.5002 27.9469V29.7502H27.2501V27.9469C27.2501 27.287 26.7441 26.7502 26.1221 26.7502ZM34.7502 28.2502V29.7502H31.0002V28.2502H34.7502ZM13.7502 29.7502H17.5002V28.2502H13.7502V29.7502ZM25.7502 29.7502H22.0002V28.2502H25.7502V29.7502ZM37.7501 41.0003H10.0003V31.2503H37.7502V41.0003H37.7501ZM46.7502 43.25H27.1817C26.3921 43.25 25.75 43.8942 25.75 44.6862V54.5637C25.75 55.3555 26.3924 55.9999 27.1817 55.9999H55.0684C55.8577 55.9999 56.5001 55.3557 56.5001 54.5637V44.6862C56.5001 43.8945 55.8577 43.25 55.0684 43.25H53.5003V41.4469C53.5004 40.787 52.9942 40.2502 52.3723 40.2502H47.8784C47.2563 40.2502 46.7502 40.787 46.7502 41.4469V43.25ZM48.2502 43.25H52.0002V41.7502H48.2502V43.25ZM55 54.5001H27.2502V44.7501H55.0001V54.5001H55ZM9.91418 43.25H22.8363C23.616 43.25 24.2502 43.8945 24.2502 44.6862V54.5637C24.2502 55.3557 23.6158 55.9999 22.8363 55.9999H9.91418C9.13459 55.9999 8.50024 55.3555 8.50024 54.5637V44.6862C8.50024 43.8942 9.13459 43.25 9.91418 43.25ZM10.0003 54.5001H22.7502V44.7501H10.0003V54.5001Z" fill="#F1AF37"/>
</svg>
