<svg width="64" height="64" viewBox="0 0 64 64" fill="none" xmlns="http://www.w3.org/2000/svg">
<path fill-rule="evenodd" clip-rule="evenodd" d="M28.0297 23.8386L54.0406 47.8576H54.0422C54.3269 48.1137 54.5579 48.4239 54.7218 48.77C54.8857 49.1161 54.9792 49.4913 54.9969 49.8738C55.0146 50.2564 54.9562 50.6386 54.825 50.9984C54.6938 51.3582 54.4925 51.6883 54.2327 51.9697C53.9729 52.251 53.6598 52.478 53.3116 52.6374C52.9634 52.7968 52.587 52.8854 52.2043 52.8982C51.8215 52.9109 51.4401 52.8475 51.082 52.7117C50.724 52.5758 50.3965 52.3702 50.1185 52.1068L48.7711 50.8633L44.2711 55.7369C44.0099 56.0197 43.6956 56.2483 43.3461 56.4097C42.9967 56.571 42.6188 56.6619 42.2342 56.6772C41.4574 56.7082 40.7001 56.4292 40.129 55.9018C39.5578 55.3744 39.2196 54.6417 39.1886 53.8649C39.1733 53.4803 39.2339 53.0964 39.367 52.7352C39.5 52.374 39.7029 52.0425 39.964 51.7597L42.6896 48.8076L41.1633 47.3986L38.4377 50.3507C38.1766 50.6335 37.8623 50.8621 37.5128 51.0234C37.1633 51.1848 36.7854 51.2757 36.4008 51.291C36.0162 51.3063 35.6323 51.2457 35.2711 51.1127C34.9099 50.9796 34.5784 50.7767 34.2956 50.5156C34.0128 50.2544 33.7842 49.9402 33.6228 49.5907C33.4615 49.2412 33.3706 48.8633 33.3553 48.4787C33.3399 48.094 33.4005 47.7102 33.5336 47.3489C33.6666 46.9877 33.8695 46.6563 34.1307 46.3735L38.6313 41.4998L24.106 28.0877C21.7975 29.5528 19.0349 30.1279 16.3336 29.7059C13.6322 29.2839 11.1767 27.8935 9.42508 25.7942C7.67346 23.6949 6.74542 21.03 6.8141 18.2967C6.88278 15.5635 7.94349 12.9486 9.79832 10.9399C11.6532 8.9312 14.1754 7.66591 16.8945 7.38009C19.6137 7.09427 22.3439 7.80744 24.5759 9.38656C26.8078 10.9657 28.3891 13.3029 29.0246 15.9621C29.6601 18.6213 29.3065 21.4209 28.0297 23.8386ZM52.4972 50.8894C52.6164 50.8346 52.7236 50.7568 52.8127 50.6605C52.9928 50.4659 53.0882 50.2078 53.0781 49.9429C53.0679 49.678 52.953 49.428 52.7586 49.2477L26.1919 24.7166C26.0302 24.5673 25.9255 24.3664 25.8959 24.1483C25.8663 23.9303 25.9136 23.7087 26.0297 23.5217C27.2594 21.5408 27.7066 19.1725 27.2837 16.8796C26.8608 14.5867 25.5983 12.5337 23.7428 11.1218C21.8874 9.70982 19.5722 9.04029 17.2495 9.24397C14.9268 9.44765 12.7634 10.5099 11.182 12.2232C9.60055 13.9366 8.71464 16.1779 8.69729 18.5095C8.67995 20.841 9.53241 23.0953 11.0882 24.8319C12.6439 26.5686 14.7912 27.6629 17.1106 27.9012C19.43 28.1394 21.755 27.5044 23.6312 26.1202C23.8082 25.9893 24.0253 25.9242 24.2451 25.9361C24.4649 25.948 24.6736 26.0363 24.8353 26.1856L40.6064 40.7499C40.6977 40.8341 40.7716 40.9355 40.8237 41.0483C40.8759 41.1611 40.9053 41.2831 40.9103 41.4072C40.9154 41.5314 40.8959 41.6553 40.853 41.7719C40.8101 41.8886 40.7447 41.9956 40.6604 42.087L35.5186 47.6559C35.4255 47.7557 35.3532 47.873 35.306 48.0011C35.2587 48.1291 35.2374 48.2652 35.2434 48.4015C35.2517 48.6068 35.3206 48.8051 35.4415 48.9712C35.5624 49.1373 35.7298 49.2638 35.9226 49.3348C36.1154 49.4058 36.3249 49.4181 36.5247 49.37C36.7244 49.322 36.9055 49.2158 37.0449 49.065L40.4117 45.4181C40.5823 45.2338 40.8189 45.1246 41.0697 45.1142H41.1076C41.3454 45.1142 41.5746 45.2038 41.7494 45.3651L44.6663 48.0582C44.8507 48.2284 44.9599 48.4649 44.9701 48.7156C44.9802 48.9663 44.8904 49.2108 44.7204 49.3953L41.353 53.0427C41.2605 53.1429 41.1885 53.2602 41.1413 53.3882C41.0941 53.5161 41.0726 53.6521 41.0779 53.7884C41.0833 53.9247 41.1155 54.0586 41.1726 54.1824C41.2297 54.3062 41.3107 54.4176 41.4109 54.5101C41.6136 54.6967 41.8819 54.7953 42.1572 54.7844C42.4325 54.7734 42.6922 54.6538 42.8794 54.4517L48.0212 48.8827C48.1054 48.7913 48.2068 48.7174 48.3196 48.6652C48.4324 48.613 48.5544 48.5836 48.6786 48.5785C48.8027 48.5735 48.9267 48.593 49.0433 48.6359C49.16 48.6789 49.267 48.7444 49.3583 48.8287L51.401 50.7146C51.4972 50.8037 51.6101 50.8731 51.7331 50.9186C51.8562 50.9642 51.987 50.9851 52.1181 50.98C52.2492 50.975 52.378 50.9442 52.4972 50.8894ZM11.1501 17.417C11.3765 16.0718 11.9899 14.8216 12.9154 13.8194C13.6986 12.9709 14.679 12.3287 15.7698 11.9496C16.8606 11.5706 18.028 11.4664 19.1686 11.6463C20.3092 11.8262 21.3879 12.2847 22.309 12.9811C23.2301 13.6775 23.9652 14.5904 24.4493 15.6388C24.9333 16.6872 25.1512 17.8388 25.0838 18.9916C25.0165 20.1444 24.6658 21.2627 24.0629 22.2476C23.46 23.2324 22.6235 24.0534 21.6275 24.6377C20.6315 25.2221 19.5068 25.5517 18.353 25.5975C18.2573 25.6029 18.1622 25.6029 18.0665 25.6029H18.0664C16.7022 25.6016 15.368 25.2028 14.2268 24.4554C13.0856 23.708 12.1869 22.6443 11.6405 21.3943C11.0941 20.1443 10.9237 18.7623 11.1501 17.417ZM19.2753 23.5675C20.2609 23.3303 21.1541 22.8062 21.842 22.0615C22.3024 21.5687 22.6604 20.9894 22.8953 20.3572C23.1302 19.725 23.2374 19.0524 23.2104 18.3785C23.1835 17.7046 23.0232 17.0428 22.7386 16.4313C22.454 15.8198 22.051 15.2709 21.5527 14.8164C20.8077 14.1289 19.8756 13.6777 18.8741 13.5198C17.8727 13.362 16.847 13.5047 15.9266 13.9298C15.0063 14.3549 14.2327 15.0433 13.7036 15.9081C13.1744 16.7728 12.9136 17.775 12.9541 18.788C12.9945 19.801 13.3344 20.7792 13.9308 21.599C14.5271 22.4188 15.3532 23.0434 16.3045 23.3938C17.2558 23.7442 18.2896 23.8046 19.2753 23.5675Z" fill="#252421"/>
</svg>
