<svg width="64" height="64" viewBox="0 0 64 64" fill="none" xmlns="http://www.w3.org/2000/svg">
<path d="M47.9 16.1001C46.0196 14.196 43.6937 12.7914 41.1331 12.0134C38.5726 11.2355 35.8584 11.109 33.2365 11.6453C30.6147 12.1816 28.1682 13.3637 26.1188 15.0846C24.0693 16.8054 22.4818 19.0106 21.5 21.5001C18.2039 22.8009 15.4285 25.1521 13.6038 28.1898C11.7791 31.2274 11.0068 34.7819 11.4066 38.3028C11.8063 41.8238 13.3558 45.1147 15.8151 47.6659C18.2743 50.2172 21.5061 51.8864 25.01 52.4151C25.8196 52.5341 26.6367 52.5943 27.455 52.5951C30.1163 52.593 32.7352 51.928 35.075 50.6601L39.575 51.8901C40.0213 52.0075 40.4905 52.006 40.9359 51.8856C41.3814 51.7651 41.7875 51.5301 42.1137 51.2038C42.44 50.8775 42.6751 50.4714 42.7955 50.026C42.9159 49.5806 42.9175 49.1113 42.8 48.6651L41.57 44.1651C41.916 43.6309 42.2266 43.0748 42.5 42.5001C44.9923 41.5214 47.2004 39.9353 48.9236 37.8861C50.6468 35.8368 51.8305 33.3893 52.3671 30.7661C52.9037 28.1429 52.7761 25.4272 51.9959 22.8658C51.2158 20.3045 49.8078 17.9788 47.9 16.1001ZM40.64 49.6401C40.5955 49.689 40.5383 49.7246 40.4748 49.7432C40.4113 49.7617 40.3439 49.7624 40.28 49.7451L35.27 48.3951C34.9803 48.3215 34.6733 48.3645 34.415 48.5151C32.5711 49.5801 30.5068 50.2064 28.382 50.3454C26.2571 50.4845 24.1288 50.1327 22.1618 49.3172C20.1948 48.5017 18.4418 47.2444 17.0387 45.6426C15.6356 44.0409 14.62 42.1377 14.0706 40.0805C13.5211 38.0232 13.4525 35.8671 13.8701 33.7791C14.2877 31.691 15.1802 29.7271 16.4787 28.0394C17.7771 26.3518 19.4466 24.9856 21.3578 24.0467C23.269 23.1078 25.3707 22.6214 27.5 22.6251C27.9147 22.6027 28.3303 22.6027 28.745 22.6251C31.0728 22.8263 33.3117 23.6133 35.2534 24.9128C37.1951 26.2123 38.7764 27.9821 39.8499 30.0572C40.9234 32.1324 41.4543 34.4455 41.3931 36.7812C41.332 39.1168 40.6807 41.3989 39.5 43.4151C39.3495 43.6733 39.3064 43.9804 39.38 44.2701L40.73 49.2801C40.7491 49.3426 40.7508 49.4092 40.735 49.4726C40.7191 49.536 40.6863 49.5939 40.64 49.6401ZM50.195 29.7801C49.8448 31.8092 49.0463 33.7346 47.8579 35.416C46.6694 37.0975 45.1209 38.4928 43.325 39.5001C43.6714 37.6896 43.712 35.834 43.445 34.0101C42.8778 30.4683 41.1522 27.2146 38.5384 24.7583C35.9246 22.3019 32.5701 20.7815 29 20.4351C27.4948 20.3091 25.9793 20.4 24.5 20.7051C26.1049 17.883 28.6485 15.713 31.6881 14.5728C34.7278 13.4326 38.0711 13.3943 41.136 14.4647C44.201 15.5352 46.7935 17.6464 48.4625 20.4311C50.1314 23.2158 50.771 26.4975 50.27 29.7051L50.195 29.7801ZM29.375 44.7801C29.3691 45.1496 29.2541 45.5091 29.0446 45.8135C28.835 46.1179 28.5401 46.3535 28.197 46.4908C27.8539 46.6282 27.4779 46.661 27.1162 46.5853C26.7545 46.5096 26.4232 46.3287 26.164 46.0654C25.9047 45.802 25.7291 45.4679 25.6592 45.105C25.5892 44.7421 25.6281 44.3667 25.7708 44.0258C25.9136 43.6849 26.1539 43.3939 26.4615 43.1891C26.7692 42.9844 27.1305 42.8751 27.5 42.8751C27.9973 42.8751 28.4742 43.0726 28.8259 43.4243C29.1775 43.7759 29.375 44.2528 29.375 44.7501V44.7801ZM33.125 32.0301V32.6601C33.1264 33.584 32.8375 34.485 32.2993 35.2359C31.761 35.9868 31.0004 36.5497 30.125 36.8451C29.6909 36.9868 29.3124 37.2616 29.0432 37.6304C28.774 37.9992 28.6277 38.4435 28.625 38.9001V39.5001C28.625 39.7985 28.5065 40.0846 28.2955 40.2956C28.0845 40.5066 27.7984 40.6251 27.5 40.6251C27.2017 40.6251 26.9155 40.5066 26.7045 40.2956C26.4936 40.0846 26.375 39.7985 26.375 39.5001V38.8701C26.3737 37.9462 26.6625 37.0452 27.2008 36.2943C27.7391 35.5434 28.4996 34.9805 29.375 34.6851C29.8091 34.5434 30.1876 34.2686 30.4568 33.8998C30.7261 33.531 30.8724 33.0867 30.875 32.6301V32.0001C30.875 31.105 30.5194 30.2465 29.8865 29.6136C29.2536 28.9807 28.3951 28.6251 27.5 28.6251C26.6049 28.6251 25.7465 28.9807 25.1135 29.6136C24.4806 30.2465 24.125 31.105 24.125 32.0001C24.125 32.2985 24.0065 32.5846 23.7955 32.7956C23.5845 33.0066 23.2984 33.1251 23 33.1251C22.7017 33.1251 22.4155 33.0066 22.2045 32.7956C21.9936 32.5846 21.875 32.2985 21.875 32.0001C21.875 30.5083 22.4677 29.0775 23.5226 28.0226C24.5774 26.9677 26.0082 26.3751 27.5 26.3751C28.9919 26.3751 30.4226 26.9677 31.4775 28.0226C32.5324 29.0775 33.125 30.5083 33.125 32.0001V32.0301Z" fill="#F1AF37"/>
</svg>
