<svg width="64" height="64" viewBox="0 0 64 64" fill="none" xmlns="http://www.w3.org/2000/svg">
<path d="M27.5002 44.75C17.9889 44.75 10.25 37.0111 10.25 27.5002C10.25 17.9889 17.9889 10.25 27.5002 10.25C37.0111 10.25 44.75 17.9889 44.75 27.5002C44.75 37.0111 37.0111 44.75 27.5002 44.75ZM27.5002 12.9737C19.4907 12.9737 12.9737 19.4907 12.9737 27.5002C12.9737 35.5097 19.4907 42.0263 27.5002 42.0263C35.5097 42.0263 42.0263 35.5097 42.0263 27.5002C42.0263 19.4907 35.5097 12.9737 27.5002 12.9737Z" fill="#252421"/>
<path d="M51.695 53.75C51.3611 53.75 51.0275 53.6291 50.7735 53.3859L37.632 40.8704C37.1227 40.3854 37.1227 39.5991 37.632 39.1138C38.1412 38.6287 38.9669 38.6287 39.4762 39.1138L52.618 51.6293C53.1273 52.1143 53.1273 52.9006 52.618 53.3859C52.3624 53.6291 52.0289 53.75 51.695 53.75Z" fill="#252421"/>
</svg>
