<svg width="74" height="64" viewBox="0 0 74 64" fill="none" xmlns="http://www.w3.org/2000/svg">
<path d="M1.78687 63.3637L3.29476 61.4636C3.57607 61.1687 3.75091 60.7884 3.79157 60.3828C3.79818 60.2732 3.78115 60.1633 3.74163 60.0608C3.70211 59.9583 3.64102 59.8655 3.56251 59.7886C3.48399 59.7117 3.38988 59.6527 3.28654 59.6153C3.1832 59.578 3.07305 59.5633 2.96354 59.5722C2.75985 59.5744 2.55895 59.6198 2.37413 59.7055C2.18931 59.7911 2.02479 59.9151 1.89147 60.0691V59.3456C2.20398 59.0908 2.59516 58.9522 2.9984 58.9534C3.18258 58.9347 3.36864 58.9555 3.5441 59.0146C3.71956 59.0736 3.88037 59.1695 4.01573 59.2958C4.1511 59.4221 4.25791 59.5758 4.32898 59.7468C4.40006 59.9177 4.43376 60.1019 4.42784 60.287C4.41558 60.8233 4.20433 61.3359 3.83515 61.7251L2.57132 63.3202H4.42784V63.9128H1.81301L1.78687 63.3637Z" fill="#E64D10"/>
<path d="M8.53296 60.6095V62.3527C8.53296 62.7896 8.3594 63.2086 8.05046 63.5176C7.74153 63.8265 7.32252 64 6.88562 64C6.44872 64 6.02972 63.8265 5.72078 63.5176C5.41184 63.2086 5.23828 62.7896 5.23828 62.3527V60.6095C5.23828 60.1726 5.41184 59.7536 5.72078 59.4447C6.02972 59.1357 6.44872 58.9622 6.88562 58.9622C7.32252 58.9622 7.74153 59.1357 8.05046 59.4447C8.3594 59.7536 8.53296 60.1726 8.53296 60.6095ZM5.8484 60.6095V62.2917C5.8352 62.4353 5.85208 62.5801 5.89799 62.7168C5.94389 62.8535 6.0178 62.9792 6.115 63.0857C6.21219 63.1922 6.33054 63.2773 6.46248 63.3356C6.59442 63.3938 6.73704 63.4239 6.88126 63.4239C7.02548 63.4239 7.16812 63.3938 7.30005 63.3356C7.43199 63.2773 7.55034 63.1922 7.64753 63.0857C7.74473 62.9792 7.81863 62.8535 7.86453 62.7168C7.91044 62.5801 7.92732 62.4353 7.91411 62.2917V60.6269C7.92732 60.4833 7.91044 60.3385 7.86453 60.2018C7.81863 60.0651 7.74473 59.9395 7.64753 59.8329C7.55034 59.7264 7.43199 59.6413 7.30005 59.583C7.16812 59.5248 7.02548 59.4947 6.88126 59.4947C6.73704 59.4947 6.59442 59.5248 6.46248 59.583C6.33054 59.6413 6.21219 59.7264 6.115 59.8329C6.0178 59.9395 5.94389 60.0651 5.89799 60.2018C5.85208 60.3385 5.8352 60.4833 5.8484 60.6269V60.6095Z" fill="#E64D10"/>
<path d="M9.18687 63.3637L10.6947 61.4636C10.9761 61.1687 11.1509 60.7884 11.1916 60.3828C11.1992 60.2691 11.1813 60.155 11.1392 60.0491C11.0972 59.9431 11.0321 59.8478 10.9486 59.7702C10.8651 59.6925 10.7654 59.6345 10.6566 59.6002C10.5479 59.566 10.4329 59.5564 10.32 59.5722C10.1163 59.5744 9.91537 59.6198 9.73055 59.7054C9.54573 59.7911 9.38121 59.915 9.24789 60.0691V59.3456C9.56271 59.0889 9.95732 58.9501 10.3635 58.9534C10.547 58.936 10.7321 58.9578 10.9065 59.0175C11.0809 59.0771 11.2406 59.1732 11.375 59.2994C11.5094 59.4255 11.6154 59.5788 11.686 59.7491C11.7565 59.9193 11.79 60.1027 11.7843 60.287C11.772 60.8233 11.5608 61.3359 11.1916 61.7251L9.92774 63.3201H11.7843V63.9128H9.16943L9.18687 63.3637Z" fill="#E64D10"/>
<path d="M12.4116 63.3201H13.6406V59.6158H12.5424V59.0231H14.2856V63.3201H15.3228V63.9128H12.4378L12.4116 63.3201Z" fill="#E64D10"/>
<path d="M15.811 62.1435V61.5857H17.624V62.1435H15.811Z" fill="#E64D10"/>
<path d="M18.208 63.3637L19.7159 61.4636C19.9972 61.1687 20.172 60.7884 20.2127 60.3828C20.2203 60.2691 20.2024 60.155 20.1604 60.0491C20.1183 59.9431 20.0532 59.8478 19.9697 59.7702C19.8862 59.6925 19.7865 59.6345 19.6778 59.6002C19.569 59.566 19.454 59.5564 19.3411 59.5722C19.1361 59.5743 18.9339 59.6196 18.7476 59.7052C18.5614 59.7908 18.3953 59.9148 18.2603 60.0691V59.3456C18.5776 59.0932 18.9706 58.9551 19.376 58.9534C19.5595 58.936 19.7446 58.9578 19.9189 59.0175C20.0933 59.0771 20.253 59.1732 20.3874 59.2994C20.5218 59.4255 20.6278 59.5788 20.6984 59.7491C20.7689 59.9193 20.8025 60.1027 20.7967 60.287C20.7844 60.8233 20.5732 61.3359 20.204 61.7251L18.9925 63.3201H20.849V63.9128H18.2342L18.208 63.3637Z" fill="#E64D10"/>
<path d="M24.9019 60.6095V62.3527C24.9019 62.7896 24.7283 63.2086 24.4194 63.5176C24.1104 63.8265 23.6914 64 23.2545 64C22.8176 64 22.3986 63.8265 22.0897 63.5176C21.7807 63.2086 21.6072 62.7896 21.6072 62.3527V60.6095C21.6072 60.1726 21.7807 59.7536 22.0897 59.4447C22.3986 59.1357 22.8176 58.9622 23.2545 58.9622C23.6914 58.9622 24.1104 59.1357 24.4194 59.4447C24.7283 59.7536 24.9019 60.1726 24.9019 60.6095ZM22.226 60.6095V62.2917C22.226 62.5645 22.3344 62.8261 22.5273 63.0189C22.7201 63.2118 22.9817 63.3202 23.2545 63.3202C23.5273 63.3202 23.7889 63.2118 23.9818 63.0189C24.1747 62.8261 24.283 62.5645 24.283 62.2917V60.6269C24.283 60.3541 24.1747 60.0926 23.9818 59.8997C23.7889 59.7068 23.5273 59.5984 23.2545 59.5984C22.9817 59.5984 22.7201 59.7068 22.5273 59.8997C22.3344 60.0926 22.226 60.3541 22.226 60.6269V60.6095Z" fill="#E64D10"/>
<path d="M25.6079 63.3637L27.1158 61.4636C27.3971 61.1687 27.572 60.7884 27.6126 60.3828C27.6192 60.2732 27.6022 60.1633 27.5627 60.0608C27.5232 59.9583 27.4621 59.8655 27.3836 59.7886C27.305 59.7117 27.2109 59.6527 27.1076 59.6153C27.0042 59.578 26.8941 59.5633 26.7846 59.5722C26.5798 59.5754 26.3779 59.6211 26.1918 59.7067C26.0057 59.7922 25.8395 59.9157 25.7038 60.0691V59.3456C26.021 59.0932 26.4141 58.9551 26.8194 58.9534C27.0029 58.936 27.188 58.9578 27.3624 59.0175C27.5368 59.0771 27.6965 59.1732 27.8309 59.2994C27.9653 59.4255 28.0713 59.5788 28.1419 59.7491C28.2124 59.9193 28.2459 60.1027 28.2402 60.287C28.227 60.8214 28.0194 61.3328 27.6562 61.7251L26.3924 63.3201H28.2402V63.9128H25.6253L25.6079 63.3637Z" fill="#E64D10"/>
<path d="M30.0357 59.6158L29.8789 60.8622H30.0357C30.2525 60.8279 30.4742 60.8414 30.6853 60.9016C30.8963 60.9619 31.0917 61.0675 31.2577 61.2111C31.4237 61.3547 31.5563 61.5328 31.6464 61.733C31.7364 61.9331 31.7817 62.1505 31.779 62.37C31.7908 62.5879 31.7559 62.8057 31.6768 63.009C31.5977 63.2124 31.4762 63.3965 31.3202 63.5491C31.1643 63.7017 30.9777 63.8193 30.7727 63.8941C30.5677 63.9688 30.3492 63.999 30.1316 63.9825C29.697 63.9796 29.2727 63.8493 28.9114 63.6077V62.8407C29.0649 63.0015 29.2486 63.1305 29.452 63.2202C29.6554 63.31 29.8745 63.3587 30.0968 63.3637C30.2316 63.3708 30.3664 63.3503 30.4931 63.3036C30.6197 63.2569 30.7355 63.1848 30.8334 63.0918C30.9313 62.9988 31.0092 62.8869 31.0624 62.7628C31.1156 62.6387 31.1429 62.505 31.1427 62.37C31.1427 61.725 30.6023 61.4374 29.9224 61.4374H29.2687L29.5302 59.0231H31.7267V59.6158H30.0357Z" fill="#E64D10"/>
<path d="M26.6275 27.1309C26.6367 27.0141 26.6205 26.8967 26.5799 26.7868C26.5393 26.6769 26.4754 26.577 26.3926 26.4942C26.3098 26.4113 26.2099 26.3475 26.1 26.3069C25.9901 26.2664 25.8727 26.2501 25.7559 26.2593H24.0127V22.7728H27.8478C29.6782 22.7728 30.5585 23.5224 30.5585 25.2308V26.5644C30.5598 27.0538 30.5307 27.5428 30.4713 28.0287H30.5585C31.5521 24.9432 33.9752 22.5201 37.2263 22.5201C37.5882 22.524 37.9493 22.5531 38.3071 22.6072V26.6079C37.9112 26.5275 37.5083 26.4866 37.1043 26.4859C34.4894 26.4859 32.1361 28.3163 31.1773 31.4453C30.8234 32.6773 30.6559 33.9553 30.6805 35.2368V43.8658H26.6362L26.6275 27.1309Z" fill="#12100B"/>
<path d="M63.026 38.0609H59.8882V34.3566H63.1218V27.7498H67.6368V34.3566H73.3894V38.0609H67.6368V49.0954C67.6368 53.898 70.9663 54.5169 72.727 54.5169C73.0953 54.5209 73.4631 54.4888 73.8252 54.421V58.5088C73.2877 58.5783 72.746 58.6103 72.204 58.6047C69.1621 58.6047 63.026 57.6546 63.026 49.6184V38.0609Z" fill="#12100B"/>
<path d="M13.4576 29.1792C8.22798 29.1792 6.48476 32.9358 6.48476 32.9358H6.40632C6.40632 32.9358 6.40632 32.4303 6.40632 31.8028C6.40632 30.4692 5.6916 29.676 3.79149 29.676H0V33.1625H1.74322C1.86451 33.1537 1.98623 33.1719 2.09957 33.216C2.2129 33.2601 2.315 33.3289 2.39845 33.4174C2.48191 33.5058 2.54462 33.6118 2.58204 33.7275C2.61947 33.8432 2.63067 33.9658 2.61483 34.0864V56.2339H6.65909V49.7317C6.65909 48.6509 6.58064 47.9013 6.58064 47.9013H6.65909C7.34629 48.9817 8.3057 49.8621 9.44094 50.4542C10.5762 51.0463 11.8472 51.3292 13.1264 51.2745C18.6263 51.2745 22.7141 46.9164 22.7141 40.2312C22.7141 33.6854 19.0882 29.1792 13.4141 29.1792H13.4576ZM12.5425 47.8142C8.62021 47.8142 6.58064 44.0662 6.58064 40.3096C6.58064 34.9318 9.53539 32.7267 12.6819 32.7267C16.1683 32.7267 18.6437 35.6814 18.6437 40.266C18.6437 45.0599 15.8981 47.8142 12.5425 47.8142Z" fill="#12100B"/>
<path d="M33.7051 58.3606C35.3535 60.152 37.3617 61.5749 39.5983 62.5362C41.8348 63.4975 44.2492 63.9756 46.6833 63.939C53.7608 63.939 58.6941 60.0341 58.6941 54.4471C58.6941 48.2848 52.924 46.0623 47.8339 44.1011C43.8245 42.5497 40.3555 41.2161 40.3555 38.2352C40.3555 35.4809 42.7611 33.8771 46.9535 33.8771C49.0367 33.8771 52.3488 34.7488 52.3488 37.0847V38.3921H57.4303V35.5506C57.4303 30.6784 50.4574 29.3884 46.7531 29.3884C40.8784 29.3884 34.6116 31.7766 34.6116 38.4792C34.6116 44.441 40.4165 46.7944 45.5328 48.8688C49.4986 50.5161 52.9851 51.8671 52.9851 54.6911C52.9851 57.5152 50.5533 59.3543 46.7879 59.3543C41.384 59.3543 37.6709 55.7197 36.6337 54.5692L33.7051 58.3606Z" fill="#12100B"/>
<path d="M46.8839 15.2596L44.269 12.575C45.2027 12.3678 46.1225 12.103 47.0233 11.7819L50.7625 17.0115C50.135 17.1946 48.5225 17.3776 46.8751 15.2683" fill="#E64D10"/>
<path d="M51.9391 17.3951L47.8164 11.6337C48.4922 11.3741 49.1428 11.0532 49.7601 10.6749L55.8178 18.9552C56.0555 19.2878 56.3208 19.5998 56.6109 19.8878C55.8178 20.036 53.9351 20.036 51.9391 17.3951Z" fill="#E64D10"/>
<path d="M62.1457 20.0622C61.3351 20.4282 58.729 21.2824 56.611 18.319L50.562 10.0474C50.9225 9.80534 51.2456 9.51167 51.5208 9.17578L55.0072 10.3612L62.1457 20.0622Z" fill="#E64D10"/>
<path d="M44.0075 0.546807C42.9004 0.0435741 41.6681 -0.117266 40.4688 0.0848818L25.7648 4.7044C19.4543 7.27564 13.0741 2.813 11.3135 1.42714V14.9719C12.9119 15.8048 14.5561 16.5469 16.2381 17.1946C20.5961 19.1034 24.7798 18.6937 28.981 16.1661C33.6267 13.3682 40.3119 12.4268 40.3642 12.4181C50.0216 11.102 50.8671 8.53946 50.9368 8.06007C46.8577 4.64336 38.3682 7.13617 38.2898 7.18846C37.0493 7.5045 35.7922 7.75186 34.5244 7.92936C33.6297 8.08559 32.7101 8.01666 31.8486 7.72886C31.8486 7.72886 35.4134 7.04904 38.4815 6.24716C38.8389 6.13385 48.1302 3.63234 51.6603 7.23209C51.6603 7.23209 52.314 7.9991 51.9479 8.5395L60.664 11.869C64.0807 12.8713 65.6496 11.2589 66.1115 10.6401L44.0075 0.546807Z" fill="#E64D10"/>
</svg>
