<svg width="225" height="120" viewBox="0 0 225 120" fill="none" xmlns="http://www.w3.org/2000/svg">
<g clip-path="url(#clip0_243_14333)">
<path d="M-4.23472e-06 86.004V81.2123C10.4268 81.2123 16.1209 73.8406 19.8923 68.9629C20.2991 68.4346 20.6811 67.9309 21.0385 67.4886C23.0845 64.933 30.0603 55.0303 36.8144 45.4593C41.8922 38.2473 47.1549 30.7895 50.3101 26.4647C57.779 16.218 62.9801 9.9397 75.1694 9.9397H224.571V14.7313H75.157C65.2355 14.7313 61.3532 19.4493 54.1801 29.2783C51.0496 33.5662 45.8115 41.0117 40.7337 48.2114C33.6346 58.2985 26.9175 67.8203 24.7853 70.4864C24.4402 70.9042 24.0828 71.3833 23.6884 71.8871C19.88 76.8262 12.7932 86.004 -0.0123291 86.004H-4.23472e-06Z" fill="#33B9C9"/>
<path d="M224.571 86.0038H75.157C62.9677 86.0038 57.7666 79.7256 50.2978 69.4788C47.1426 65.154 41.8922 57.7085 36.8144 50.4965C30.0603 40.9132 23.0845 30.9982 21.0262 28.4427C20.6688 28.0004 20.2867 27.5089 19.88 26.9683C16.1086 22.0907 10.4268 14.7189 -0.0123291 14.7189V9.92725C12.7809 9.92725 19.88 19.1174 23.6884 24.0442C24.0828 24.5479 24.4402 25.0271 24.7853 25.4448C26.9298 28.1109 33.6469 37.6451 40.746 47.7321C45.8115 54.9196 51.0496 62.3528 54.1801 66.653C61.3532 76.482 65.2355 81.1999 75.157 81.1999H224.559V85.9915L224.571 86.0038Z" fill="#33B9C9"/>
<path d="M26.3136 11.5368C26.3136 5.17252 31.5024 0 37.8866 0C44.2709 0 49.4597 5.17252 49.4597 11.5368C49.4597 17.9011 44.2709 23.0736 37.8866 23.0736C31.5024 23.0736 26.3136 17.9011 26.3136 11.5368ZM31.8105 11.5368C31.8105 14.8787 34.5343 17.5939 37.8866 17.5939C41.239 17.5939 43.9628 14.8787 43.9628 11.5368C43.9628 8.19494 41.239 5.47968 37.8866 5.47968C34.5343 5.47968 31.8105 8.19494 31.8105 11.5368Z" fill="#253164"/>
<path d="M47.0194 114.655H42.0401V119.791H39.304V107.259H42.0401V112.272H47.0194V107.259H49.7555V119.791H47.0194V114.655Z" fill="#253164"/>
<path d="M56.719 107.259H59.8989L63.9044 119.791H61.1806L60.4781 117.334H56.0412L55.3263 119.791H52.6025L56.7067 107.259H56.719ZM56.7314 115.331H59.8126L58.2966 109.962L56.7314 115.331Z" fill="#253164"/>
<path d="M69.4383 114.545C69.4383 116.474 70.1162 117.469 71.6691 117.469C73.2221 117.469 73.9492 116.4 73.9492 114.52V107.259H76.6854V114.717C76.6854 117.666 75.1694 119.988 71.6815 119.988C68.1935 119.988 66.7022 117.899 66.7022 114.717V107.259H69.4383V114.533V114.545Z" fill="#253164"/>
<path d="M85.7441 109.987V119.791H83.008V109.987H79.7789V107.259H88.8869V109.987H85.7441Z" fill="#253164"/>
<path d="M92.2516 116.511C93.0651 117.064 94.1496 117.53 95.2959 117.53C96.2572 117.53 97.046 117.125 97.046 116.154C97.046 115.479 96.6393 115.135 95.7026 114.827L93.9278 114.262C92.3009 113.709 91.4505 112.641 91.4505 110.945C91.4505 108.832 93.0404 107.112 95.8875 107.112C97.3664 107.112 98.8454 107.517 99.6958 107.996L98.944 110.368C98.1306 109.852 96.9597 109.544 96.0107 109.544C94.7659 109.544 94.162 110.011 94.162 110.761C94.162 111.424 94.5317 111.756 95.2096 111.977L97.0213 112.604C98.981 113.292 99.8684 114.336 99.8684 115.995C99.8684 118.255 98.2045 119.988 95.4684 119.988C93.8908 119.988 92.3625 119.435 91.623 119.017L92.2516 116.523V116.511Z" fill="#253164"/>
<path d="M109.543 113.144V115.282H103.061V113.144H109.543Z" fill="#253164"/>
<path d="M113.401 107.259H118.257C121.425 107.259 123.791 109.483 123.791 113.537C123.791 117.592 121.425 119.779 118.257 119.779H113.401V107.247V107.259ZM117.912 117.408C119.835 117.408 121.006 116.032 121.006 113.537C121.006 111.043 119.835 109.63 117.912 109.63H116.137V117.408H117.912Z" fill="#253164"/>
<path d="M127.402 119.791V107.259H136.054V109.655H130.027V112.211H134.908V114.533H130.027V117.408H136.054V119.779H127.402V119.791Z" fill="#253164"/>
<path d="M145.791 113.144V115.282H139.296V113.144H145.791Z" fill="#253164"/>
<path d="M152.286 115.479V119.791H149.661V107.259H157.993V109.655H152.286V113.083H157.142V115.479H152.286Z" fill="#253164"/>
<path d="M161.345 107.259H166.743C169.085 107.259 170.588 108.93 170.588 111.387C170.588 113.341 169.393 114.778 167.741 115.171C168.727 116.302 169.701 117.629 170.761 117.629C171.057 117.629 171.501 117.518 171.809 117.346L172.08 119.496C171.636 119.754 170.81 119.975 170.083 119.975C167.532 119.975 165.831 116.24 164.451 115.27H164.081V119.779H161.345V107.247V107.259ZM164.081 113.193H166.065C167.113 113.193 167.815 112.518 167.815 111.424C167.815 110.257 167.113 109.63 166.065 109.63H164.081V113.181V113.193Z" fill="#253164"/>
<path d="M177.589 107.259H180.769L184.774 119.791H182.063L181.36 117.334H176.924L176.196 119.791H173.473L177.577 107.259H177.589ZM177.614 115.331H180.695L179.179 109.962L177.614 115.331Z" fill="#253164"/>
<path d="M190.419 111.854V119.791H187.708V107.259H190.074L195.374 115.221V107.259H198.122V119.791H195.719L190.419 111.854Z" fill="#253164"/>
<path d="M211.667 118.169C210.706 119.115 209.054 119.975 207.292 119.975C204.137 119.975 201.746 117.58 201.746 113.537C201.746 109.495 204.137 107.075 207.292 107.075C210.04 107.075 211.606 108.512 211.655 111.436L209.19 111.916C209.153 110.306 208.475 109.594 207.181 109.594C205.579 109.594 204.544 111.031 204.544 113.537C204.544 116.044 205.653 117.444 207.538 117.444C208.685 117.444 209.856 116.658 210.607 115.921L211.68 118.169H211.667Z" fill="#253164"/>
<path d="M215.118 119.791V107.259H223.77V109.655H217.743V112.211H222.624V114.533H217.743V117.408H223.77V119.779H215.118V119.791Z" fill="#253164"/>
<path d="M94.9508 26.7717C97.3911 26.7717 97.6746 27.7915 98.8578 29.9416C104.355 39.832 108.385 51.0248 111.725 62.2668C112.07 63.6183 112.181 65.0926 110.135 65.0926H108.779C106.622 65.0926 106.45 63.3357 105.834 61.1364C104.983 58.028 104.133 55.0301 103.171 52.2043H86.0522C85.1402 55.0301 84.2898 58.028 83.4393 61.1364C82.8108 63.3357 82.6506 65.0926 80.4937 65.0926H79.138C77.092 65.0926 77.2153 63.6183 77.5481 62.2668C80.8881 51.0248 84.9183 39.832 90.4152 29.9416C91.6107 27.7915 91.8942 26.7717 94.3222 26.7717H94.9508ZM87.4696 48.1376H101.816C99.7698 42.5473 97.2185 37.3994 94.618 32.1408C91.6724 37.3379 89.5155 42.5473 87.4696 48.1376Z" fill="#253164"/>
<path d="M110.147 66.0264H108.792C106.179 66.0264 105.636 63.9746 105.156 62.1562C105.094 61.9105 105.02 61.6525 104.946 61.3944C104.207 58.6792 103.406 55.8165 102.506 53.1381H86.7178C85.8304 55.9516 85.0169 58.8758 84.3268 61.3944C84.2528 61.6647 84.1789 61.9105 84.1172 62.1562C83.6366 63.9746 83.0943 66.0264 80.4814 66.0264H79.1257C78.115 66.0264 77.3755 65.7192 76.9072 65.1295C76.217 64.2449 76.4019 63.0162 76.6484 62.0579C80.6786 48.4816 84.7951 38.1488 89.6018 29.4993L89.9222 28.9095C90.8836 27.1403 91.5738 25.8625 94.3222 25.8625H94.9508C97.6992 25.8625 98.3894 27.1403 99.3508 28.9095L99.6712 29.4993C104.478 38.1365 108.594 48.4693 112.625 62.0088C112.883 63.0162 113.068 64.2326 112.366 65.1295C111.897 65.7192 111.158 66.0264 110.147 66.0264ZM85.3744 51.2951H103.837L104.047 51.9217C105.045 54.8336 105.92 57.9666 106.733 60.903C106.807 61.161 106.881 61.4313 106.943 61.6893C107.485 63.7165 107.707 64.1834 108.792 64.1834H110.147C110.529 64.1834 110.825 64.1097 110.911 63.9991C110.998 63.8886 111.096 63.5445 110.838 62.5002C106.857 49.1327 102.789 38.9106 98.0567 30.3962L97.7239 29.7819C96.8118 28.0987 96.6023 27.7055 94.9508 27.7055H94.3222C92.6707 27.7055 92.4612 28.0987 91.5491 29.7819L91.2164 30.3962C86.4713 38.9229 82.4041 49.145 78.4231 62.5371C78.1767 63.5445 78.2753 63.8886 78.3615 63.9991C78.4478 64.122 78.7436 64.1834 79.1257 64.1834H80.4814C81.5537 64.1834 81.7878 63.7043 82.3301 61.6893C82.3918 61.4313 82.4657 61.1733 82.5397 60.903C83.2791 58.1877 84.1789 54.9933 85.1525 51.9463L85.3621 51.3074L85.3744 51.2951ZM103.135 49.0713H86.1508L86.6069 47.8304C88.3323 43.0879 90.5508 37.4608 93.8169 31.6985L94.6796 30.1873L95.4561 31.7477C98.0074 36.8833 100.633 42.191 102.703 47.8427L103.159 49.0836L103.135 49.0713ZM88.7884 47.2284H100.485C98.7592 42.707 96.7256 38.4928 94.5687 34.1435C92.0914 38.7631 90.2673 43.2599 88.7884 47.2284Z" fill="#253164"/>
<path d="M122.891 37.2273C124.42 37.2273 125.048 37.8539 125.048 39.316V42.363C126.182 39.8197 129.128 36.8219 132.874 36.8219C136.054 36.8219 137.693 38.4068 137.693 40.0409C137.693 41.2327 137.188 41.847 136.498 42.3016C135.758 41.675 134.735 40.8272 132.751 40.8272C127.871 40.8272 125.147 45.2871 125.147 50.8282V62.9302C125.147 64.4537 124.518 65.0803 122.99 65.0803H122.534C121.006 65.0803 120.377 64.4537 120.377 62.9302V39.3037C120.377 37.8294 121.006 37.2151 122.534 37.2151H122.879L122.891 37.2273Z" fill="#253164"/>
<path d="M123.002 66.0264H122.546C120.5 66.0264 119.465 64.9944 119.465 62.9548V39.3283C119.465 37.3257 120.5 36.3182 122.546 36.3182H122.891C124.925 36.3182 125.96 37.3257 125.972 39.2915C127.636 37.4117 130.064 35.925 132.874 35.925C136.818 35.925 138.618 38.0751 138.618 40.0655C138.618 41.3924 138.1 42.3753 137.016 43.0879L136.436 43.4688L135.906 43.0142C135.241 42.4613 134.427 41.761 132.764 41.761C128.154 41.761 126.083 46.3192 126.083 50.8406V62.9426C126.083 64.9821 125.048 66.0141 123.002 66.0141V66.0264ZM122.546 38.1611C121.474 38.1611 121.314 38.4192 121.314 39.3283V62.9548C121.314 63.9746 121.523 64.1835 122.546 64.1835H123.002C124.025 64.1835 124.235 63.9746 124.235 62.9548V50.8529C124.235 44.3166 127.661 39.9304 132.764 39.9304C134.551 39.9304 135.697 40.5447 136.486 41.1221C136.67 40.8764 136.781 40.5447 136.781 40.0655C136.781 38.9229 135.438 37.768 132.887 37.768C129.769 37.768 127.008 40.2744 125.911 42.7562L124.136 46.7247V39.3283C124.136 38.4192 123.976 38.1611 122.904 38.1611H122.559H122.546Z" fill="#253164"/>
<path d="M165.646 47.9164V59.1092C165.646 61.6524 167.064 62.7336 168.025 63.0654C167.52 64.3677 166.213 65.2155 164.845 65.2155C162.516 65.2155 161.16 63.3479 161.16 60.8047C159.632 62.8442 156.735 65.5472 151.916 65.5472C145.742 65.5472 142.056 62.0948 142.056 57.0082C142.056 51.5286 146.419 47.9041 153.506 47.9041C157.586 47.9041 159.459 48.8624 160.938 49.3785V46.8966C160.938 42.1541 158.387 40.5692 153.851 40.5692C150.45 40.5692 147.615 42.2033 146.025 44.4148C144.78 44.2428 143.646 43.6285 143.646 42.2156C143.646 39.3897 148.12 36.785 153.63 36.785C161.345 36.785 165.646 40.3972 165.646 47.9164ZM146.703 56.7871C146.703 59.7849 148.971 61.8122 152.717 61.8122C157.426 61.8122 160.938 58.3106 160.938 54.0718V52.9906C159.015 52.1429 156.464 51.4057 153.63 51.4057C149.316 51.4057 146.715 53.5558 146.715 56.7748L146.703 56.7871Z" fill="#253164"/>
<path d="M151.916 66.4687C145.36 66.4687 141.132 62.7582 141.132 57.0083C141.132 50.9143 145.988 46.9827 153.506 46.9827C156.698 46.9827 158.609 47.5478 160.014 48.0516V46.8844C160.014 42.9896 158.288 41.4784 153.851 41.4784C150.98 41.4784 148.342 42.7685 146.777 44.9432L146.456 45.3978L145.902 45.324C143.905 45.0537 142.722 43.8865 142.722 42.2033C142.722 38.7632 147.714 35.8513 153.629 35.8513C162.097 35.8513 166.571 40.0164 166.571 47.9042V59.0969C166.571 61.3208 167.803 61.9965 168.333 62.1808L169.233 62.5002L168.888 63.3848C168.247 65.0189 166.62 66.1124 164.857 66.1124C162.762 66.1124 161.197 64.8838 160.556 62.8934C158.683 64.7486 155.885 66.4564 151.929 66.4564L151.916 66.4687ZM153.506 48.8379C147.011 48.8379 142.981 51.9709 142.981 57.0206C142.981 61.7139 146.407 64.638 151.916 64.638C156.218 64.638 158.917 62.2545 160.42 60.2641L162.084 58.0526V60.817C162.084 62.5002 162.812 64.3063 164.845 64.3063C165.572 64.3063 166.262 63.9746 166.731 63.4463C165.819 62.8197 164.71 61.5542 164.71 59.1215V47.9287C164.71 41.1467 160.975 37.7188 153.617 37.7188C148.428 37.7188 144.558 40.1024 144.558 42.2279C144.558 42.4613 144.558 43.1125 145.631 43.4197C147.566 41.0607 150.585 39.6723 153.839 39.6723C157.278 39.6723 161.85 40.4218 161.85 46.9212V50.7054L160.618 50.2877C160.396 50.214 160.162 50.128 159.927 50.0297C158.547 49.5137 156.822 48.8625 153.494 48.8625L153.506 48.8379ZM152.717 62.746C148.564 62.746 145.779 60.3501 145.779 56.7994C145.779 52.9784 148.86 50.5088 153.617 50.5088C156.846 50.5088 159.582 51.4057 161.308 52.1675L161.863 52.4132V54.0841C161.863 58.9495 157.845 62.746 152.717 62.746ZM153.629 52.3518C149.932 52.3518 147.64 54.0596 147.64 56.7994C147.64 59.3304 149.587 60.903 152.73 60.903C156.822 60.903 160.026 57.9052 160.026 54.0841V53.6173C158.461 52.9907 156.23 52.3395 153.642 52.3395L153.629 52.3518Z" fill="#253164"/>
<path d="M196.656 41.5274C196.656 43.0509 195.633 43.7881 194.215 43.9601C193.537 42.4858 190.925 40.6305 186.956 40.6305C182.248 40.6305 178.168 43.911 178.168 51.1967C178.168 58.4825 182.482 61.7138 186.845 61.7138C191.208 61.7138 193.365 60.1289 194.499 58.0402C195.855 58.0402 197.05 58.9494 197.05 60.3623C197.05 62.8441 193.303 65.5594 187.301 65.5594C180.436 65.5594 173.349 61.4926 173.349 51.1967C173.349 40.9008 180.72 36.7235 187.301 36.7235C193.316 36.7235 196.656 39.4388 196.656 41.5274Z" fill="#253164"/>
<path d="M187.301 66.4686C180.436 66.4686 172.425 62.4633 172.425 51.1845C172.425 39.9057 180.436 35.7898 187.301 35.7898C193.648 35.7898 197.58 38.7631 197.58 41.5152C197.58 43.3704 196.36 44.6113 194.326 44.8571L193.661 44.9308L193.377 44.3165C192.835 43.1493 190.493 41.5152 186.956 41.5152C183.148 41.5152 179.093 44.0462 179.093 51.1599C179.093 58.2737 183.271 60.7555 186.845 60.7555C191.43 60.7555 192.946 58.9371 193.685 57.5611L193.944 57.0819H194.499C196.483 57.0819 197.974 58.4702 197.974 60.3255C197.974 63.3356 193.981 66.444 187.301 66.444V66.4686ZM187.301 37.645C181.003 37.645 174.274 41.208 174.274 51.1968C174.274 61.1855 181.003 64.638 187.301 64.638C192.983 64.638 196.126 62.107 196.126 60.3623C196.126 59.6374 195.608 59.1829 194.992 59.0231C193.414 61.4558 190.752 62.6353 186.845 62.6353C182.063 62.6353 177.244 59.0968 177.244 51.1968C177.244 42.7193 182.482 39.7091 186.956 39.7091C190.629 39.7091 193.463 41.2449 194.671 42.9404C195.596 42.6701 195.719 42.0558 195.719 41.5398C195.719 40.1514 192.897 37.6573 187.289 37.6573L187.301 37.645Z" fill="#253164"/>
<path d="M209.301 29.7204C210.78 29.7204 211.458 30.347 211.458 31.8091V37.3993H219.284C220.812 37.3993 221.49 38.1365 221.49 39.316C221.49 40.6183 220.701 41.2327 219.284 41.2327H211.458V55.4724C211.458 60.4484 213.553 61.9104 216.905 61.9104C218.212 61.9104 220.134 61.4067 220.936 60.6081C221.848 60.8907 222.353 61.7384 222.353 62.5248C222.353 64.2203 219.457 65.5226 216.006 65.5226C210.842 65.5226 206.762 63.0408 206.762 55.4602V41.2204H203.989C202.461 41.2204 201.61 40.8763 201.61 39.3037C201.61 37.8294 202.461 37.387 203.989 37.387H206.762V31.7968C206.762 30.3224 207.502 29.7081 208.919 29.7081H209.313L209.301 29.7204Z" fill="#253164"/>
<path d="M215.993 66.4687C211.359 66.4687 205.825 64.5643 205.825 55.4848V42.1665H203.977C203.077 42.1665 200.674 42.1665 200.674 39.3283C200.674 37.4362 201.783 36.4902 203.977 36.4902H205.825V31.8214C205.825 29.8802 206.922 28.8113 208.907 28.8113H209.301C211.84 28.8113 212.382 30.4454 212.382 31.8214V36.4902H219.284C221.244 36.4902 222.415 37.5591 222.415 39.3283C222.415 41.0975 221.244 42.1665 219.284 42.1665H212.382V55.4848C212.382 60.0675 214.194 61.0013 216.905 61.0013C218.126 61.0013 219.74 60.5099 220.282 59.9693L220.677 59.5761L221.207 59.7481C222.427 60.129 223.277 61.2839 223.277 62.5494C223.277 64.7855 220.147 66.4687 216.006 66.4687H215.993ZM203.977 38.3209C202.522 38.3209 202.522 38.7386 202.522 39.316C202.522 40.0286 202.522 40.3112 203.977 40.3112H207.674V55.4725C207.674 61.6156 210.398 64.6135 215.993 64.6135C219.309 64.6135 221.416 63.3848 221.416 62.5371C221.416 62.2545 221.281 61.9228 221.022 61.7016C219.913 62.4142 218.175 62.832 216.893 62.832C212.604 62.832 210.521 60.4239 210.521 55.4725V40.3112H219.272C220.455 40.3112 220.554 39.8443 220.554 39.316C220.554 38.7877 220.455 38.3209 219.272 38.3209H210.521V31.8091C210.521 30.9368 210.349 30.6419 209.289 30.6419H208.894C207.945 30.6419 207.662 30.8999 207.662 31.8091V38.3209H203.964H203.977Z" fill="#253164"/>
</g>
<defs>
<clipPath id="clip0_243_14333">
<rect width="224.571" height="120" fill="white"/>
</clipPath>
</defs>
</svg>
