<svg width="64" height="64" viewBox="0 0 64 64" fill="none" xmlns="http://www.w3.org/2000/svg">
<path fill-rule="evenodd" clip-rule="evenodd" d="M32.0002 58.6667C17.2722 58.6667 5.3335 46.728 5.3335 32C5.3335 17.272 17.2722 5.33334 32.0002 5.33334C46.7282 5.33334 58.6668 17.272 58.6668 32C58.6668 46.728 46.7282 58.6667 32.0002 58.6667ZM32.0002 53.3333C43.7822 53.3333 53.3335 43.7821 53.3335 32C53.3335 20.2179 43.7822 10.6667 32.0002 10.6667C20.2181 10.6667 10.6668 20.2179 10.6668 32C10.6668 43.7821 20.2181 53.3333 32.0002 53.3333ZM28.3255 22.44L41.3362 31.112C41.6333 31.3098 41.8119 31.6431 41.8119 32C41.8119 32.357 41.6333 32.6903 41.3362 32.888L28.3228 41.56C27.9959 41.7767 27.5765 41.7965 27.2306 41.6116C26.8847 41.4267 26.6682 41.0669 26.6668 40.6747V23.3253C26.6676 22.9322 26.8844 22.5714 27.2312 22.3863C27.578 22.2012 27.9985 22.2218 28.3255 22.44Z" fill="white"/>
</svg>
