<svg width="21" height="21" viewBox="0 0 21 21" fill="none" xmlns="http://www.w3.org/2000/svg">
<path fill-rule="evenodd" clip-rule="evenodd" d="M16.4436 14.617L20.7266 18.899L19.3116 20.314L15.0296 16.031C13.4363 17.3082 11.4546 18.0029 9.4126 18C4.4446 18 0.412598 13.968 0.412598 9C0.412598 4.032 4.4446 0 9.4126 0C14.3806 0 18.4126 4.032 18.4126 9C18.4155 11.042 17.7208 13.0237 16.4436 14.617ZM14.4376 13.875C15.7067 12.5699 16.4155 10.8204 16.4126 9C16.4126 5.132 13.2796 2 9.4126 2C5.5446 2 2.4126 5.132 2.4126 9C2.4126 12.867 5.5446 16 9.4126 16C11.233 16.0029 12.9825 15.2941 14.2876 14.025L14.4376 13.875Z" fill="#9E9B94"/>
</svg>
