<svg width="16" height="16" viewBox="0 0 24 24" fill="none" xmlns="http://www.w3.org/2000/svg">
<path fill-rule="evenodd" clip-rule="evenodd" d="M2 8.99999H5V21H2C1.44772 21 1 20.5523 1 20V9.99999C1 9.44771 1.44772 8.99999 2 8.99999ZM7.293 7.70699L13.693 1.30699C13.8689 1.13062 14.1477 1.11058 14.347 1.25999L15.2 1.89999C15.6844 2.26366 15.9026 2.88301 15.753 3.46999L14.6 7.99999H21C22.1046 7.99999 23 8.89542 23 9.99999V12.104C23.0003 12.3654 22.9493 12.6242 22.85 12.866L19.755 20.381C19.6006 20.7557 19.2353 21 18.83 21H8C7.44772 21 7 20.5523 7 20V8.41399C7 8.1488 7.10545 7.89449 7.293 7.70699Z" fill="#252421"/>
</svg>
