<svg width="16" height="16" viewBox="0 0 16 16" fill="none" xmlns="http://www.w3.org/2000/svg">
<path fill-rule="evenodd" clip-rule="evenodd" d="M8.25599 0.460654L9.46532 1.06532C10.1665 1.41581 10.5287 2.20761 10.3353 2.96732L9.73332 5.33332H14C14.7364 5.33332 15.3333 5.93027 15.3333 6.66665V8.06932C15.3335 8.24356 15.2995 8.41615 15.2333 8.57732L13.17 13.5873C13.067 13.8371 12.8235 14 12.5533 14H1.33332C0.965133 14 0.666656 13.7015 0.666656 13.3333V6.66665C0.666656 6.29846 0.965133 5.99999 1.33332 5.99999H3.65466C3.87124 6.00004 4.07435 5.89488 4.19932 5.71799L7.83466 0.566654C7.92962 0.432076 8.10865 0.387037 8.25599 0.460654ZM8.42866 2.03865L5.28866 6.48665C5.12199 6.72265 4.90866 6.91599 4.66666 7.05865V12.6667H12.1067L14 8.06932V6.66665H9.73332C9.32182 6.6666 8.9334 6.47653 8.68084 6.15165C8.42828 5.82676 8.33989 5.40346 8.44132 5.00465L9.04332 2.63932C9.08214 2.48729 9.00969 2.32878 8.86932 2.25865L8.42866 2.03865Z" fill="#252421"/>
</svg>
