<svg width="16" height="16" viewBox="0 0 16 16" fill="none" xmlns="http://www.w3.org/2000/svg">
<g clip-path="url(#clip0_30_2935)">
<g clip-path="url(#clip1_30_2935)">
<path d="M14.2859 0H1.7143C1.25964 0 0.823602 0.180614 0.502108 0.502108C0.180614 0.823602 0 1.25964 0 1.7143V2.85717C0 3.00872 0.0602045 3.15407 0.167369 3.26124C0.274534 3.3684 0.41988 3.4286 0.571434 3.4286V9.71438C0.571434 10.169 0.752048 10.6051 1.07354 10.9266C1.39504 11.2481 1.83108 11.4287 2.28574 11.4287H7.07435L5.20576 15.1716C5.13799 15.3065 5.12639 15.4628 5.1735 15.6063C5.22061 15.7498 5.32261 15.8688 5.4572 15.9373C5.53624 15.9796 5.6247 16.0012 5.71434 16.0002C5.81987 15.9998 5.92324 15.9703 6.01301 15.9148C6.10278 15.8594 6.17543 15.7801 6.22292 15.6859L8.00008 12.1373L9.77724 15.6859C9.82472 15.7801 9.89738 15.8594 9.98715 15.9148C10.0769 15.9703 10.1803 15.9998 10.2858 16.0002C10.3755 16.0012 10.4639 15.9796 10.543 15.9373C10.6775 15.8688 10.7795 15.7498 10.8267 15.6063C10.8738 15.4628 10.8622 15.3065 10.7944 15.1716L8.9258 11.4287H13.7144C14.1691 11.4287 14.6051 11.2481 14.9266 10.9266C15.2481 10.6051 15.4287 10.169 15.4287 9.71438V3.4286C15.5803 3.4286 15.7256 3.3684 15.8328 3.26124C15.94 3.15407 16.0002 3.00872 16.0002 2.85717V1.7143C16.0002 1.25964 15.8195 0.823602 15.498 0.502108C15.1766 0.180614 14.7405 0 14.2859 0ZM14.2859 9.71438C14.2859 9.86593 14.2256 10.0113 14.1185 10.1184C14.0113 10.2256 13.866 10.2858 13.7144 10.2858H2.28574C2.13418 10.2858 1.98884 10.2256 1.88167 10.1184C1.77451 10.0113 1.7143 9.86593 1.7143 9.71438V3.4286H14.2859V9.71438ZM14.8573 2.28574H1.14287V1.7143C1.14287 1.56275 1.20307 1.4174 1.31024 1.31024C1.4174 1.20307 1.56275 1.14287 1.7143 1.14287H14.2859C14.4374 1.14287 14.5828 1.20307 14.6899 1.31024C14.7971 1.4174 14.8573 1.56275 14.8573 1.7143V2.28574ZM4.57147 5.71434C4.57147 5.56279 4.63168 5.41744 4.73884 5.31028C4.84601 5.20311 4.99135 5.14291 5.14291 5.14291H10.8572C11.0088 5.14291 11.1541 5.20311 11.2613 5.31028C11.3685 5.41744 11.4287 5.56279 11.4287 5.71434C11.4287 5.8659 11.3685 6.01124 11.2613 6.11841C11.1541 6.22557 11.0088 6.28578 10.8572 6.28578H5.14291C4.99135 6.28578 4.84601 6.22557 4.73884 6.11841C4.63168 6.01124 4.57147 5.8659 4.57147 5.71434ZM3.4286 8.00008C3.4286 7.84852 3.48881 7.70318 3.59597 7.59601C3.70314 7.48885 3.84849 7.42864 4.00004 7.42864H12.0001C12.1517 7.42864 12.297 7.48885 12.4042 7.59601C12.5113 7.70318 12.5716 7.84852 12.5716 8.00008C12.5716 8.15163 12.5113 8.29698 12.4042 8.40414C12.297 8.51131 12.1517 8.57151 12.0001 8.57151H4.00004C3.84849 8.57151 3.70314 8.51131 3.59597 8.40414C3.48881 8.29698 3.4286 8.15163 3.4286 8.00008Z" fill="#252421"/>
</g>
</g>
<defs>
<clipPath id="clip0_30_2935">
<rect width="16" height="16" fill="white"/>
</clipPath>
<clipPath id="clip1_30_2935">
<rect width="16" height="16" fill="white"/>
</clipPath>
</defs>
</svg>
