<svg width="16" height="16" viewBox="0 0 16 16" fill="none" xmlns="http://www.w3.org/2000/svg">
<g clip-path="url(#clip0_164_4449)">
<path fill-rule="evenodd" clip-rule="evenodd" d="M8.98618 1.99004L10.861 2.26251C11.2897 2.32473 11.461 2.8531 11.1511 3.15535L9.79449 4.47769L10.1147 6.34485C10.1881 6.7726 9.73734 7.09735 9.35528 6.89663L7.67846 6.01504L6.00162 6.89663C5.61803 7.09825 5.16903 6.77147 5.24215 6.34485L5.5624 4.47766L4.20584 3.15535C3.89562 2.85298 4.0675 2.32476 4.4959 2.26257L6.37068 1.9901L7.20909 0.291258C7.40075 -0.0971171 7.95612 -0.0970546 8.14781 0.291258L8.98618 1.99004ZM8.71621 4.38335C8.68706 4.21357 8.74337 4.04032 8.86674 3.92007L9.66087 3.14594L8.56334 2.98644C8.39284 2.96166 8.24549 2.8546 8.16924 2.70013L7.67846 1.7056L7.18765 2.70013C7.11137 2.8546 6.96406 2.96166 6.79356 2.98644L5.69603 3.14594L6.49018 3.92007C6.61356 4.04032 6.66984 4.21357 6.64071 4.38335L6.45321 5.47644L7.4349 4.96032C7.58734 4.88016 7.76953 4.88016 7.92206 4.96032L8.90371 5.47641L8.71621 4.38335ZM10.8173 12.1616H15.1791C15.4681 12.1616 15.7025 12.396 15.7025 12.685V15.4766C15.7025 15.7657 15.4681 16 15.1791 16H0.523406C0.234344 16 0 15.7656 0 15.4766V10.5913C0 10.3023 0.234344 10.0679 0.523406 10.0679H4.88522V8.49769C4.88522 8.20863 5.11956 7.97429 5.40862 7.97429H10.2939C10.5829 7.97429 10.8173 8.20863 10.8173 8.49769V12.1616ZM1.04684 14.9532H4.88522V11.1148H1.04684V14.9532ZM5.93206 14.9532H9.77043V9.0211H5.93206V14.9532ZM10.8173 14.9532H14.6556V13.2084H10.8173V14.9532Z" fill="#252421"/>
</g>
<defs>
<clipPath id="clip0_164_4449">
<rect width="16" height="16" fill="white"/>
</clipPath>
</defs>
</svg>
