<svg width="16" height="16" viewBox="0 0 16 16" fill="none" xmlns="http://www.w3.org/2000/svg">
<g clip-path="url(#clip0_30_2937)">
<g clip-path="url(#clip1_30_2937)">
<path d="M13.2113 0.0906445C13.1456 0.044535 13.0697 0.0149385 12.9901 0.00435868C12.9105 -0.00622111 12.8295 0.0025271 12.754 0.0298633L5.41671 2.68493H2.73503C2.07624 2.68565 1.44465 2.94767 0.978815 3.4135C0.512984 3.87933 0.250964 4.51092 0.250244 5.16971V8.26564C0.250964 8.92443 0.512984 9.55602 0.978815 10.0219C1.44465 10.4877 2.07624 10.7497 2.73503 10.7504H3.02596V14.2094C3.02647 14.6841 3.21528 15.1393 3.55098 15.475C3.88668 15.8107 4.34184 15.9995 4.81659 16H5.27171C5.47631 15.9998 5.67246 15.9184 5.81713 15.7737C5.96181 15.6291 6.04319 15.4329 6.04343 15.2283V13.8502H7.31271C7.69738 13.8498 8.06617 13.6968 8.33817 13.4248C8.61018 13.1528 8.76318 12.784 8.76362 12.3993V11.9615L12.7542 13.4055C12.8298 13.4328 12.9107 13.4415 12.9903 13.4309C13.0699 13.4203 13.1458 13.3907 13.2115 13.3446C13.2773 13.2985 13.3309 13.2372 13.368 13.166C13.405 13.0947 13.4244 13.0156 13.4244 12.9353V9.19083C14.054 9.15211 14.6452 8.87469 15.0774 8.41514C15.5095 7.95558 15.7501 7.3485 15.7501 6.71766C15.7501 6.08682 15.5095 5.47974 15.0774 5.02018C14.6452 4.56063 14.054 4.28321 13.4244 4.24449V0.500019C13.4244 0.419689 13.405 0.340544 13.3679 0.269284C13.3308 0.198025 13.2771 0.136749 13.2113 0.0906445ZM6.04331 9.91371V3.52164L10.382 1.95164V11.4837L6.04331 9.91371ZM1.25024 8.26564V5.16971C1.25068 4.77605 1.40726 4.39865 1.68561 4.12029C1.96397 3.84194 2.34137 3.68536 2.73503 3.68493H5.04331V9.75055H2.73503C2.34135 9.7501 1.96393 9.59351 1.68558 9.31513C1.40722 9.03675 1.25066 8.65932 1.25024 8.26564ZM4.81649 15C4.60687 14.9998 4.40589 14.9164 4.25767 14.7682C4.10944 14.62 4.02608 14.419 4.02587 14.2094V10.7504H5.04321V15H4.81649ZM7.76353 12.3993C7.76339 12.5189 7.71583 12.6335 7.6313 12.718C7.54677 12.8025 7.43216 12.8501 7.31262 12.8502H6.04334V10.9771L7.76356 11.5996L7.76353 12.3993ZM12.4242 12.2226L11.382 11.8455V1.5898L12.4242 1.21268V12.2226ZM14.7497 6.71768C14.7492 7.08317 14.6136 7.43558 14.3689 7.70705C14.1241 7.97853 13.7876 8.14988 13.4242 8.18811V5.24721C13.7876 5.28544 14.1241 5.4568 14.3689 5.72828C14.6136 5.99976 14.7492 6.35217 14.7497 6.71768Z" fill="#252421"/>
</g>
</g>
<defs>
<clipPath id="clip0_30_2937">
<rect width="16" height="16" fill="white"/>
</clipPath>
<clipPath id="clip1_30_2937">
<rect width="16" height="16" fill="white"/>
</clipPath>
</defs>
</svg>
