<svg width="16" height="16" viewBox="0 0 16 16" fill="none" xmlns="http://www.w3.org/2000/svg">
<g clip-path="url(#clip0_261_9227)">
<path d="M14.8254 3.82617L15.6014 3.05029C15.7303 2.92126 15.7728 2.72913 15.7102 2.55786C15.6476 2.38647 15.4912 2.26709 15.3093 2.25171L13.8698 2.13025L13.7483 0.690674C13.733 0.508911 13.6135 0.352539 13.4423 0.289917C13.271 0.227173 13.0789 0.269653 12.9498 0.398682L12.1738 1.17456C10.9189 0.405151 9.48413 0 8 0C5.86316 0 3.85413 0.832153 2.34314 2.34314C0.832153 3.85413 0 5.86316 0 8C0 10.1368 0.832153 12.1459 2.34314 13.6569C3.85413 15.1678 5.86316 16 8 16C10.1368 16 12.1459 15.1678 13.6569 13.6569C15.1678 12.1459 16 10.1368 16 8C16 6.51587 15.5948 5.08118 14.8254 3.82617ZM12.9688 2.60352C12.988 2.8313 13.1687 3.01196 13.3965 3.03125L14.2247 3.10107L13.1036 4.22217L11.881 4.11902L11.7778 2.89636L12.8989 1.77527L12.9688 2.60352ZM9.59375 8C9.59375 8.87878 8.87878 9.59375 8 9.59375C7.12122 9.59375 6.40625 8.87878 6.40625 8C6.40625 7.12122 7.12122 6.40625 8 6.40625C8.26917 6.40625 8.52271 6.47351 8.74524 6.5918L7.66858 7.66858C7.48547 7.85156 7.48547 8.14832 7.66858 8.33142C7.76001 8.42297 7.88 8.46875 8 8.46875C8.12 8.46875 8.23999 8.42297 8.33142 8.33142L9.4082 7.25476C9.52649 7.47729 9.59375 7.73083 9.59375 8ZM9.42664 5.9104C9.02014 5.63208 8.52881 5.46875 8 5.46875C6.60425 5.46875 5.46875 6.60425 5.46875 8C5.46875 9.39575 6.60425 10.5312 8 10.5312C9.39575 10.5312 10.5312 9.39575 10.5312 8C10.5312 7.47119 10.3679 6.97986 10.0896 6.57336L11.428 5.23499C12.0394 5.99158 12.4062 6.95374 12.4062 8C12.4062 10.4296 10.4296 12.4062 8 12.4062C5.57043 12.4062 3.59375 10.4296 3.59375 8C3.59375 5.57043 5.57043 3.59375 8 3.59375C9.04626 3.59375 10.0084 3.96057 10.765 4.57202L9.42664 5.9104ZM12.9939 12.9939C11.66 14.3279 9.88647 15.0625 8 15.0625C6.11353 15.0625 4.33997 14.3279 3.0061 12.9939C1.67212 11.66 0.9375 9.88647 0.9375 8C0.9375 6.11353 1.67212 4.33997 3.0061 3.0061C4.33997 1.67212 6.11353 0.9375 8 0.9375C9.23413 0.9375 10.4296 1.25452 11.4897 1.85864L10.9611 2.38733C10.8756 2.47278 10.8269 2.58728 10.8239 2.70679C10.8235 2.72388 10.824 2.74097 10.8253 2.75818L10.8884 3.5061C10.0551 2.96851 9.06335 2.65625 8 2.65625C5.05347 2.65625 2.65625 5.05347 2.65625 8C2.65625 10.9465 5.05347 13.3438 8 13.3438C10.9465 13.3438 13.3438 10.9465 13.3438 8C13.3438 6.93665 13.0315 5.94495 12.4939 5.11157L13.2418 5.17468C13.255 5.17566 13.2682 5.17627 13.2812 5.17627C13.2834 5.17627 13.2858 5.17603 13.288 5.1759C13.2942 5.1759 13.3003 5.17542 13.3065 5.17505C13.3167 5.17444 13.3269 5.17383 13.3369 5.17261C13.3431 5.17175 13.3494 5.17078 13.3556 5.1698C13.3655 5.16821 13.3752 5.16638 13.385 5.16418C13.3912 5.16272 13.3973 5.16113 13.4034 5.15955C13.413 5.15698 13.4224 5.15405 13.4318 5.15088C13.4379 5.1488 13.4438 5.14673 13.4498 5.14441C13.459 5.14087 13.468 5.13696 13.4771 5.13269C13.4828 5.13013 13.4885 5.12756 13.4943 5.12463C13.5033 5.12 13.5121 5.11487 13.5208 5.10974C13.526 5.10657 13.5312 5.10364 13.5364 5.10046C13.5457 5.09436 13.5546 5.08777 13.5635 5.08105C13.5676 5.07788 13.5719 5.07507 13.5759 5.07178C13.5886 5.06152 13.601 5.05066 13.6127 5.03894L14.1414 4.51025C14.7455 5.57043 15.0625 6.76587 15.0625 8C15.0625 9.88647 14.3279 11.66 12.9939 12.9939Z" fill="#252421"/>
</g>
<defs>
<clipPath id="clip0_261_9227">
<rect width="16" height="16" fill="white"/>
</clipPath>
</defs>
</svg>
