<svg width="16" height="16" viewBox="0 0 16 16" fill="none" xmlns="http://www.w3.org/2000/svg">
<g clip-path="url(#clip0_164_4502)">
<path d="M6.62459 10.8851L5.41062 10.4804C5.30512 10.4453 5.23372 10.3488 5.22919 10.2385H6.99797C7.12741 10.2385 7.23234 10.1335 7.23234 10.0041V6.24654C7.23234 4.45976 5.77869 3.0061 3.99191 3.0061C2.20512 3.0061 0.7515 4.45976 0.7515 6.24654V10.0041C0.7515 10.1335 0.856438 10.2385 0.985875 10.2385H2.75466C2.75009 10.3488 2.67875 10.4453 2.57322 10.4804L1.35925 10.8851C0.54625 11.1561 0 11.914 0 12.771V13.2606C0 13.3901 0.104937 13.495 0.234375 13.495C0.363813 13.495 0.46875 13.3901 0.46875 13.2606V12.771C0.46875 12.1161 0.886188 11.5369 1.5075 11.3298L1.96444 11.1775C2.60231 12.1913 3.81903 12.9292 3.87134 12.9606C3.90847 12.9829 3.95019 12.994 3.99194 12.994C4.03369 12.994 4.07541 12.9829 4.11253 12.9606C4.16484 12.9292 5.38138 12.1914 6.01941 11.1774L6.47641 11.3298C7.09772 11.5369 7.51516 12.1161 7.51516 12.771V13.2606C7.51516 13.3901 7.62009 13.495 7.74953 13.495C7.87897 13.495 7.98391 13.3901 7.98391 13.2606V12.771C7.98387 11.914 7.43762 11.1561 6.62459 10.8851ZM1.22025 6.24654C1.22025 4.71823 2.46362 3.47485 3.99194 3.47485C5.52025 3.47485 6.76359 4.71823 6.76359 6.24654V9.76973H5.22831V9.61432C5.83172 9.21292 6.23031 8.52704 6.23031 7.74957V6.99807C6.23031 6.73188 6.06034 6.30007 4.59056 5.62642C3.83622 5.28067 3.09516 5.03257 3.064 5.0222C2.94125 4.98126 2.8085 5.04763 2.76753 5.17045C2.72659 5.29326 2.79297 5.42598 2.91578 5.46692C2.92316 5.46938 3.66375 5.71729 4.39528 6.05257C5.74606 6.67167 5.76159 6.98504 5.76159 6.99807V7.74957C5.76159 8.72535 4.96772 9.51923 3.99194 9.51923C3.01616 9.51923 2.22228 8.72535 2.22228 7.74957V7.05095C2.22228 6.89892 2.26688 6.75163 2.35119 6.62513L2.68391 6.12607C2.75572 6.01838 2.72662 5.87285 2.61891 5.80107C2.51119 5.72929 2.36569 5.75835 2.29391 5.86607L1.96119 6.36517C1.82534 6.56895 1.75353 6.8061 1.75353 7.05098V7.7496C1.75353 8.52707 2.15216 9.21295 2.75553 9.61435V9.76976H1.22025V6.24654ZM3.99181 12.4816C3.69169 12.2837 2.90175 11.7239 2.42391 11.0243L2.72144 10.9251C3.02222 10.8249 3.22428 10.5445 3.22428 10.2275V9.85229C3.46381 9.94001 3.72237 9.98795 3.99194 9.98795C4.26147 9.98795 4.52003 9.94004 4.75956 9.85232V10.2275C4.75956 10.5445 4.96163 10.8249 5.26241 10.9251L5.55988 11.0243C5.08266 11.7226 4.29197 12.2834 3.99181 12.4816Z" fill="#252421" stroke="#252421" stroke-width="0.2"/>
<path d="M14.6407 10.8851L13.1763 10.397C13.0673 10.3606 12.994 10.259 12.994 10.144V9.27888C13.4572 8.82663 13.7455 8.19603 13.7455 7.4991V7.06641C13.9078 6.80566 14.5087 5.76947 14.497 4.74088C14.4898 4.1081 14.2491 3.56878 13.801 3.18122C13.2822 2.7326 12.5104 2.50513 11.5071 2.50513C10.4941 2.50513 9.76985 2.74991 9.35435 3.23266C9.30732 3.28731 9.26663 3.34278 9.23094 3.39822C9.22222 3.39913 9.21347 3.40041 9.20469 3.40235C8.89053 3.47116 8.59822 3.65675 8.38163 3.92494C8.14254 4.22097 8.01616 4.59066 8.01616 4.99406C8.01616 5.90553 8.56947 6.61447 8.76766 6.83916V7.4991C8.76766 8.19603 9.05597 8.82663 9.51916 9.27888V10.144C9.51916 10.259 9.44588 10.3606 9.33685 10.397L8.0385 10.8298C7.91569 10.8707 7.84935 11.0034 7.89025 11.1262C7.923 11.2244 8.01444 11.2865 8.11257 11.2865C8.13713 11.2865 8.16213 11.2826 8.18672 11.2744L8.94466 11.0218C9.55225 11.64 10.3864 11.992 11.2565 11.992C12.1248 11.992 12.9612 11.6396 13.5684 11.0218L14.4925 11.3298C15.1138 11.5369 15.5313 12.1161 15.5313 12.771V13.2607C15.5313 13.3901 15.6362 13.495 15.7656 13.495C15.8951 13.495 16 13.3901 16 13.2607V12.771C16 11.914 15.4538 11.1562 14.6407 10.8851ZM9.23638 7.4991V6.7476C9.23638 6.68306 9.21028 6.62463 9.16807 6.58222L9.1681 6.58219C9.16125 6.57531 8.48488 5.88294 8.48488 4.99406C8.48488 4.5201 8.7211 4.16553 9.01253 3.98228C8.98341 4.17997 9.00288 4.31947 9.00463 4.3311C9.02391 4.4591 9.14316 4.54713 9.27128 4.52797C9.39928 4.50869 9.48744 4.38931 9.46816 4.26131C9.4676 4.25753 9.41957 3.87541 9.7096 3.53847C10.0275 3.16913 10.649 2.97391 11.5071 2.97391C12.3946 2.97391 13.0632 3.16297 13.4944 3.53581C13.9285 3.91128 14.0243 4.40128 14.0283 4.74622C14.0333 5.19141 13.8989 5.65131 13.7455 6.02869V5.99606C13.7455 5.96244 13.7389 5.65866 13.5107 5.35444C13.142 4.86288 12.4901 4.75969 12.0081 4.75969H10.1147C9.79763 4.75969 9.51725 4.96175 9.417 5.2625L9.28069 5.67144C9.23975 5.79425 9.30613 5.92697 9.42891 5.96791C9.55169 6.00878 9.68444 5.94247 9.72538 5.81969L9.86169 5.41075C9.89804 5.30169 9.99969 5.22844 10.1146 5.22844H12.0081C13.2224 5.22844 13.2748 5.92 13.2767 5.99606V7.4991C13.2767 8.61303 12.3705 9.51925 11.2565 9.51925C10.1426 9.51925 9.23638 8.613 9.23638 7.4991ZM11.2565 11.5233C10.5909 11.5233 9.95004 11.2824 9.45022 10.8533L9.48507 10.8417C9.78585 10.7414 9.98791 10.4611 9.98791 10.144V9.63922C10.3597 9.86044 10.7934 9.988 11.2566 9.988C11.7197 9.988 12.1534 9.86047 12.5252 9.63922V10.144C12.5252 10.4611 12.7273 10.7414 13.0281 10.8417L13.0629 10.8533C12.563 11.2821 11.9207 11.5233 11.2565 11.5233Z" fill="#252421" stroke="#252421" stroke-width="0.2"/>
</g>
<defs>
<clipPath id="clip0_164_4502">
<rect width="16" height="16" fill="white"/>
</clipPath>
</defs>
</svg>
