<svg width="16" height="16" viewBox="0 0 16 16" fill="none" xmlns="http://www.w3.org/2000/svg">
<g clip-path="url(#clip0_30_2938)">
<path d="M12.3967 1.32539C12.2072 1.11809 11.9393 1 11.6585 1H4.34147C4.06063 1 3.79274 1.11809 3.60329 1.3254L0.575664 4.63836C0.244052 5.00122 0.225343 5.55129 0.531534 5.93585L7.21769 14.3333C7.61804 14.8361 8.38196 14.8361 8.78231 14.3333L15.4685 5.93585C15.7747 5.55129 15.7559 5.00122 15.4243 4.63836L12.3967 1.32539ZM11.1818 5.77716L8 13.3371L4.81818 5.77716H11.1818ZM5.28499 4.80383L8 2.15443L10.715 4.80383H5.28499ZM11.4295 4.16546L9.18302 1.97333H11.4295V4.16546ZM4.57055 4.16546V1.97333H6.81698L4.57055 4.16546ZM3.63338 4.80383H1.71652L3.63338 2.70631V4.80383ZM3.79538 5.77716L6.23334 11.5696L1.62124 5.77716H3.79538ZM12.2046 5.77716H14.3788L9.76666 11.5696L12.2046 5.77716ZM12.3666 4.80383V2.70631L14.2835 4.80383H12.3666Z" fill="#252421"/>
</g>
<defs>
<clipPath id="clip0_30_2938">
<rect width="16" height="16" fill="white"/>
</clipPath>
</defs>
</svg>
