<svg width="24" height="24" viewBox="0 0 24 24" fill="none" xmlns="http://www.w3.org/2000/svg">
<path fill-rule="evenodd" clip-rule="evenodd" d="M15.5395 2.17164L19.4456 6.07797C19.5555 6.18785 19.6172 6.33691 19.6172 6.4923V20.2422C19.6172 21.2114 18.8286 22 17.8594 22H6.14062C5.17137 22 4.38281 21.2114 4.38281 20.2422V3.75781C4.38281 2.78855 5.17137 2 6.14062 2H15.1252C15.2805 2 15.4296 2.06176 15.5395 2.17164ZM17.6166 5.90625L15.7109 4.00051V5.90625H17.6166ZM6.14062 20.8281H17.8594C18.1825 20.8281 18.4453 20.5653 18.4453 20.2422V7.07812H15.125C14.8014 7.07812 14.5391 6.81578 14.5391 6.49219V3.17188H6.14062C5.81754 3.17188 5.55469 3.43473 5.55469 3.75781V20.2422C5.55469 20.5653 5.81754 20.8281 6.14062 20.8281ZM14.231 14.495H15.6398C16.2163 14.495 16.7325 14.7931 17.0208 15.2923C17.3091 15.7916 17.309 16.3877 17.0208 16.887C16.7326 17.3862 16.2163 17.6843 15.6398 17.6843C15.0634 17.6843 14.5471 17.3862 14.2588 16.887L13.5544 15.6669H10.4456L9.74117 16.887C9.45293 17.3862 8.93664 17.6843 8.36015 17.6843H8.36012C7.78363 17.6842 7.26738 17.3862 6.97918 16.8869C6.69093 16.3877 6.6909 15.7916 6.97918 15.2923C7.26742 14.7931 7.78367 14.495 8.36015 14.495H9.76894L11.3234 11.8027L10.6189 10.5826C10.3307 10.0833 10.3307 9.48719 10.6189 8.98794C10.9072 8.48864 11.4234 8.19059 12 8.19059C12.5765 8.19059 13.0927 8.48868 13.381 8.98794C13.6693 9.48719 13.6692 10.0833 13.381 10.5826L12.6766 11.8027L14.231 14.495ZM8.36015 16.5124C8.43355 16.5124 8.61613 16.4918 8.72629 16.301L9.09242 15.6669H8.36015C8.13984 15.6669 8.03074 15.8147 7.99406 15.8782C7.95738 15.9418 7.8839 16.1102 7.99406 16.301C8.10418 16.4918 8.28676 16.5124 8.36015 16.5124ZM12 9.36247C11.7797 9.36247 11.6705 9.51032 11.6339 9.57387C11.5972 9.63743 11.5237 9.80583 11.6339 9.99665L12 10.6308L12.3661 9.99665C12.4763 9.80583 12.4028 9.63743 12.3661 9.57387C12.3295 9.51028 12.2203 9.36247 12 9.36247ZM12 12.9745L11.1221 14.495H12.8779L12 12.9745ZM15.6398 16.5124C15.7132 16.5124 15.8958 16.4918 16.0059 16.301C16.1161 16.1102 16.0426 15.9418 16.0059 15.8782C15.9693 15.8147 15.8602 15.6669 15.6398 15.6669H14.9076L15.2737 16.301C15.3839 16.4918 15.5665 16.5124 15.6398 16.5124Z" fill="#252421"/>
</svg>
